<?xml version="1.0" encoding="UTF-8" standalone="no"?>
<!DOCTYPE svg PUBLIC "-//W3C//DTD SVG 1.1//EN"
 "http://www.w3.org/Graphics/SVG/1.1/DTD/svg11.dtd">
<!-- Generated by graphviz version 14.1.5 (0)
 -->
<!-- Title: activity_diagram Pages: 1 -->
<svg width="516pt" height="1040pt"
 viewBox="0.00 0.00 516.00 1040.00" xmlns="http://www.w3.org/2000/svg" xmlns:xlink="http://www.w3.org/1999/xlink">
<g id="graph0" class="graph" transform="scale(1 1) rotate(0) translate(4 1036.41)">
<title>activity_diagram</title>
<polygon fill="white" stroke="none" points="-4,4 -4,-1036.41 511.5,-1036.41 511.5,4 -4,4"/>
<text xml:space="preserve" text-anchor="middle" x="253.75" y="-1007.51" font-family="Times,serif" font-size="22.00">财务记录录入活动图</text>
<!-- start -->
<g id="node1" class="node">
<title>start</title>
<ellipse fill="#111827" stroke="#475569" cx="387" cy="-983.16" rx="9" ry="9"/>
</g>
<!-- open_page -->
<g id="node2" class="node">
<title>open_page</title>
<path fill="#dbeafe" stroke="#475569" d="M441.12,-929.16C441.12,-929.16 332.88,-929.16 332.88,-929.16 326.88,-929.16 320.88,-923.16 320.88,-917.16 320.88,-917.16 320.88,-905.16 320.88,-905.16 320.88,-899.16 326.88,-893.16 332.88,-893.16 332.88,-893.16 441.12,-893.16 441.12,-893.16 447.12,-893.16 453.12,-899.16 453.12,-905.16 453.12,-905.16 453.12,-917.16 453.12,-917.16 453.12,-923.16 447.12,-929.16 441.12,-929.16"/>
<text xml:space="preserve" text-anchor="middle" x="387" y="-909.33" font-family="Sans" font-size="11.00">进入收入/支出记录页面</text>
</g>
<!-- start&#45;&gt;open_page -->
<g id="edge1" class="edge">
<title>start&#45;&gt;open_page</title>
<path fill="none" stroke="#475569" d="M387,-973.75C387,-973.75 387,-940.96 387,-940.96"/>
<polygon fill="#475569" stroke="#475569" points="390.5,-940.96 387,-930.96 383.5,-940.96 390.5,-940.96"/>
</g>
<!-- fill_form -->
<g id="node3" class="node">
<title>fill_form</title>
<path fill="#e0f2fe" stroke="#475569" d="M495.5,-848.16C495.5,-848.16 278.5,-848.16 278.5,-848.16 272.5,-848.16 266.5,-842.16 266.5,-836.16 266.5,-836.16 266.5,-824.16 266.5,-824.16 266.5,-818.16 272.5,-812.16 278.5,-812.16 278.5,-812.16 495.5,-812.16 495.5,-812.16 501.5,-812.16 507.5,-818.16 507.5,-824.16 507.5,-824.16 507.5,-836.16 507.5,-836.16 507.5,-842.16 501.5,-848.16 495.5,-848.16"/>
<text xml:space="preserve" text-anchor="middle" x="387" y="-828.33" font-family="Sans" font-size="11.00">填写部门、账户、类别、金额、日期、经办人</text>
</g>
<!-- open_page&#45;&gt;fill_form -->
<g id="edge2" class="edge">
<title>open_page&#45;&gt;fill_form</title>
<path fill="none" stroke="#475569" d="M387,-892.78C387,-892.78 387,-859.98 387,-859.98"/>
<polygon fill="#475569" stroke="#475569" points="390.5,-859.98 387,-849.98 383.5,-859.98 390.5,-859.98"/>
</g>
<!-- submit -->
<g id="node4" class="node">
<title>submit</title>
<path fill="#e0f2fe" stroke="#475569" d="M303.75,-767.16C303.75,-767.16 244.25,-767.16 244.25,-767.16 238.25,-767.16 232.25,-761.16 232.25,-755.16 232.25,-755.16 232.25,-743.16 232.25,-743.16 232.25,-737.16 238.25,-731.16 244.25,-731.16 244.25,-731.16 303.75,-731.16 303.75,-731.16 309.75,-731.16 315.75,-737.16 315.75,-743.16 315.75,-743.16 315.75,-755.16 315.75,-755.16 315.75,-761.16 309.75,-767.16 303.75,-767.16"/>
<text xml:space="preserve" text-anchor="middle" x="274" y="-747.33" font-family="Sans" font-size="11.00">提交保存请求</text>
</g>
<!-- fill_form&#45;&gt;submit -->
<g id="edge3" class="edge">
<title>fill_form&#45;&gt;submit</title>
<path fill="none" stroke="#475569" d="M291.12,-811.78C291.12,-811.78 291.12,-778.98 291.12,-778.98"/>
<polygon fill="#475569" stroke="#475569" points="294.63,-778.98 291.13,-768.98 287.63,-778.98 294.63,-778.98"/>
</g>
<!-- check_required -->
<g id="node5" class="node">
<title>check_required</title>
<polygon fill="#fef3c7" stroke="#475569" points="208,-686.16 77.55,-668.16 208,-650.16 338.45,-668.16 208,-686.16"/>
<text xml:space="preserve" text-anchor="middle" x="208" y="-666.33" font-family="Sans" font-size="11.00">必填项完整且金额 &gt; 0 ?</text>
</g>
<!-- submit&#45;&gt;check_required -->
<g id="edge4" class="edge">
<title>submit&#45;&gt;check_required</title>
<path fill="none" stroke="#475569" d="M274,-730.78C274,-730.78 274,-688.94 274,-688.94"/>
<polygon fill="#475569" stroke="#475569" points="277.5,-688.94 274,-678.94 270.5,-688.94 277.5,-688.94"/>
</g>
<!-- correct_form -->
<g id="node6" class="node">
<title>correct_form</title>
<path fill="#fee2e2" stroke="#475569" d="M418.88,-566.66C418.88,-566.66 303.12,-566.66 303.12,-566.66 297.12,-566.66 291.12,-560.66 291.12,-554.66 291.12,-554.66 291.12,-542.66 291.12,-542.66 291.12,-536.66 297.12,-530.66 303.12,-530.66 303.12,-530.66 418.88,-530.66 418.88,-530.66 424.88,-530.66 430.88,-536.66 430.88,-542.66 430.88,-542.66 430.88,-554.66 430.88,-554.66 430.88,-560.66 424.88,-566.66 418.88,-566.66"/>
<text xml:space="preserve" text-anchor="middle" x="361" y="-546.83" font-family="Sans" font-size="11.00">提示错误并返回表单修改</text>
</g>
<!-- check_required&#45;&gt;correct_form -->
<g id="edge5" class="edge">
<title>check_required&#45;&gt;correct_form</title>
<path fill="none" stroke="#475569" d="M314.79,-664.45C314.79,-664.45 314.79,-578.59 314.79,-578.59"/>
<polygon fill="#475569" stroke="#475569" points="318.29,-578.59 314.79,-568.59 311.29,-578.59 318.29,-578.59"/>
<text xml:space="preserve" text-anchor="middle" x="303.88" y="-618.66" font-family="Sans" font-size="10.00">否</text>
</g>
<!-- check_master -->
<g id="node7" class="node">
<title>check_master</title>
<polygon fill="#fef3c7" stroke="#475569" points="157,-591.16 54.75,-548.66 157,-506.16 259.25,-548.66 157,-591.16"/>
<text xml:space="preserve" text-anchor="middle" x="157" y="-555.46" font-family="Sans" font-size="11.00">部门/账户/类别</text>
<text xml:space="preserve" text-anchor="middle" x="157" y="-538.21" font-family="Sans" font-size="11.00">是否为有效状态 ?</text>
</g>
<!-- check_required&#45;&gt;check_master -->
<g id="edge7" class="edge">
<title>check_required&#45;&gt;check_master</title>
<path fill="none" stroke="#475569" d="M168.4,-655.37C168.4,-655.37 168.4,-598.26 168.4,-598.26"/>
<polygon fill="#475569" stroke="#475569" points="171.9,-598.26 168.4,-588.26 164.9,-598.26 171.9,-598.26"/>
<text xml:space="preserve" text-anchor="middle" x="200.88" y="-618.66" font-family="Sans" font-size="10.00">是</text>
</g>
<!-- correct_form&#45;&gt;fill_form -->
<g id="edge6" class="edge">
<title>correct_form&#45;&gt;fill_form</title>
<path fill="none" stroke="#475569" d="M384.66,-567.13C384.66,-567.13 384.66,-800.47 384.66,-800.47"/>
<polygon fill="#475569" stroke="#475569" points="381.16,-800.47 384.66,-810.47 388.16,-800.47 381.16,-800.47"/>
</g>
<!-- reject_master -->
<g id="node8" class="node">
<title>reject_master</title>
<path fill="#fee2e2" stroke="#475569" d="M472.12,-447.16C472.12,-447.16 333.88,-447.16 333.88,-447.16 327.88,-447.16 321.88,-441.16 321.88,-435.16 321.88,-435.16 321.88,-423.16 321.88,-423.16 321.88,-417.16 327.88,-411.16 333.88,-411.16 333.88,-411.16 472.12,-411.16 472.12,-411.16 478.12,-411.16 484.12,-417.16 484.12,-423.16 484.12,-423.16 484.12,-435.16 484.12,-435.16 484.12,-441.16 478.12,-447.16 472.12,-447.16"/>
<text xml:space="preserve" text-anchor="middle" x="403" y="-427.33" font-family="Sans" font-size="11.00">拒绝保存并提示主数据已停用</text>
</g>
<!-- check_master&#45;&gt;reject_master -->
<g id="edge8" class="edge">
<title>check_master&#45;&gt;reject_master</title>
<path fill="none" stroke="#475569" d="M229,-535.85C229,-504.99 229,-429 229,-429 229,-429 310.09,-429 310.09,-429"/>
<polygon fill="#475569" stroke="#475569" points="310.09,-432.5 320.09,-429 310.09,-425.5 310.09,-432.5"/>
<text xml:space="preserve" text-anchor="middle" x="330.88" y="-474.66" font-family="Sans" font-size="10.00">否</text>
</g>
<!-- generate_no -->
<g id="node9" class="node">
<title>generate_no</title>
<path fill="#dcfce7" stroke="#475569" d="M186.75,-447.16C186.75,-447.16 127.25,-447.16 127.25,-447.16 121.25,-447.16 115.25,-441.16 115.25,-435.16 115.25,-435.16 115.25,-423.16 115.25,-423.16 115.25,-417.16 121.25,-411.16 127.25,-411.16 127.25,-411.16 186.75,-411.16 186.75,-411.16 192.75,-411.16 198.75,-417.16 198.75,-423.16 198.75,-423.16 198.75,-435.16 198.75,-435.16 198.75,-441.16 192.75,-447.16 186.75,-447.16"/>
<text xml:space="preserve" text-anchor="middle" x="157" y="-427.33" font-family="Sans" font-size="11.00">生成业务编号</text>
</g>
<!-- check_master&#45;&gt;generate_no -->
<g id="edge10" class="edge">
<title>check_master&#45;&gt;generate_no</title>
<path fill="none" stroke="#475569" d="M157,-505.86C157,-505.86 157,-458.9 157,-458.9"/>
<polygon fill="#475569" stroke="#475569" points="160.5,-458.9 157,-448.9 153.5,-458.9 160.5,-458.9"/>
<text xml:space="preserve" text-anchor="middle" x="161.88" y="-474.66" font-family="Sans" font-size="10.00">是</text>
</g>
<!-- reject_master&#45;&gt;fill_form -->
<g id="edge9" class="edge">
<title>reject_master&#45;&gt;fill_form</title>
<path fill="none" stroke="#475569" d="M457.5,-447.43C457.5,-447.43 457.5,-800.27 457.5,-800.27"/>
<polygon fill="#475569" stroke="#475569" points="454,-800.27 457.5,-810.27 461,-800.27 454,-800.27"/>
</g>
<!-- save_record -->
<g id="node10" class="node">
<title>save_record</title>
<path fill="#dcfce7" stroke="#475569" d="M249.75,-366.16C249.75,-366.16 64.25,-366.16 64.25,-366.16 58.25,-366.16 52.25,-360.16 52.25,-354.16 52.25,-354.16 52.25,-342.16 52.25,-342.16 52.25,-336.16 58.25,-330.16 64.25,-330.16 64.25,-330.16 249.75,-330.16 249.75,-330.16 255.75,-330.16 261.75,-336.16 261.75,-342.16 261.75,-342.16 261.75,-354.16 261.75,-354.16 261.75,-360.16 255.75,-366.16 249.75,-366.16"/>
<text xml:space="preserve" text-anchor="middle" x="157" y="-346.33" font-family="Sans" font-size="11.00">写入 income_record / expense_record</text>
</g>
<!-- generate_no&#45;&gt;save_record -->
<g id="edge11" class="edge">
<title>generate_no&#45;&gt;save_record</title>
<path fill="none" stroke="#475569" d="M157,-410.78C157,-410.78 157,-377.98 157,-377.98"/>
<polygon fill="#475569" stroke="#475569" points="160.5,-377.98 157,-367.98 153.5,-377.98 160.5,-377.98"/>
</g>
<!-- refresh_list -->
<g id="node11" class="node">
<title>refresh_list</title>
<path fill="#d1fae5" stroke="#475569" d="M214.88,-285.16C214.88,-285.16 99.12,-285.16 99.12,-285.16 93.12,-285.16 87.12,-279.16 87.12,-273.16 87.12,-273.16 87.12,-261.16 87.12,-261.16 87.12,-255.16 93.12,-249.16 99.12,-249.16 99.12,-249.16 214.88,-249.16 214.88,-249.16 220.88,-249.16 226.88,-255.16 226.88,-261.16 226.88,-261.16 226.88,-273.16 226.88,-273.16 226.88,-279.16 220.88,-285.16 214.88,-285.16"/>
<text xml:space="preserve" text-anchor="middle" x="157" y="-265.33" font-family="Sans" font-size="11.00">返回保存结果并刷新列表</text>
</g>
<!-- save_record&#45;&gt;refresh_list -->
<g id="edge12" class="edge">
<title>save_record&#45;&gt;refresh_list</title>
<path fill="none" stroke="#475569" d="M157,-329.78C157,-329.78 157,-296.98 157,-296.98"/>
<polygon fill="#475569" stroke="#475569" points="160.5,-296.98 157,-286.98 153.5,-296.98 160.5,-296.98"/>
</g>
<!-- ask_report -->
<g id="node12" class="node">
<title>ask_report</title>
<polygon fill="#fef3c7" stroke="#475569" points="157,-204.16 22.08,-186.16 157,-168.16 291.92,-186.16 157,-204.16"/>
<text xml:space="preserve" text-anchor="middle" x="157" y="-184.34" font-family="Sans" font-size="11.00">是否继续查看统计结果 ?</text>
</g>
<!-- refresh_list&#45;&gt;ask_report -->
<g id="edge13" class="edge">
<title>refresh_list&#45;&gt;ask_report</title>
<path fill="none" stroke="#475569" d="M157,-248.78C157,-248.78 157,-215.98 157,-215.98"/>
<polygon fill="#475569" stroke="#475569" points="160.5,-215.98 157,-205.98 153.5,-215.98 160.5,-215.98"/>
</g>
<!-- load_report -->
<g id="node13" class="node">
<title>load_report</title>
<path fill="#cffafe" stroke="#475569" d="M154,-109.16C154,-109.16 12,-109.16 12,-109.16 6,-109.16 0,-103.16 0,-97.16 0,-97.16 0,-85.16 0,-85.16 0,-79.16 6,-73.16 12,-73.16 12,-73.16 154,-73.16 154,-73.16 160,-73.16 166,-79.16 166,-85.16 166,-85.16 166,-97.16 166,-97.16 166,-103.16 160,-109.16 154,-109.16"/>
<text xml:space="preserve" text-anchor="middle" x="83" y="-89.33" font-family="Sans" font-size="11.00">调用报表接口并展示趋势/汇总</text>
</g>
<!-- ask_report&#45;&gt;load_report -->
<g id="edge14" class="edge">
<title>ask_report&#45;&gt;load_report</title>
<path fill="none" stroke="#475569" d="M94.04,-176.35C94.04,-176.35 94.04,-121.02 94.04,-121.02"/>
<polygon fill="#475569" stroke="#475569" points="97.54,-121.02 94.04,-111.02 90.54,-121.02 97.54,-121.02"/>
<text xml:space="preserve" text-anchor="middle" x="145.88" y="-136.66" font-family="Sans" font-size="10.00">是</text>
</g>
<!-- end -->
<g id="node14" class="node">
<title>end</title>
<ellipse fill="#111827" stroke="#475569" cx="156" cy="-14.08" rx="10.08" ry="10.08"/>
<ellipse fill="none" stroke="#475569" cx="156" cy="-14.08" rx="14.08" ry="14.08"/>
</g>
<!-- ask_report&#45;&gt;end -->
<g id="edge15" class="edge">
<title>ask_report&#45;&gt;end</title>
<path fill="none" stroke="#475569" d="M231,-177.86C231,-143.47 231,-14 231,-14 231,-14 181.97,-14 181.97,-14"/>
<polygon fill="#475569" stroke="#475569" points="181.97,-10.5 171.97,-14 181.97,-17.5 181.97,-10.5"/>
<text xml:space="preserve" text-anchor="middle" x="234.88" y="-89.16" font-family="Sans" font-size="10.00">否</text>
</g>
<!-- load_report&#45;&gt;end -->
<g id="edge16" class="edge">
<title>load_report&#45;&gt;end</title>
<path fill="none" stroke="#475569" d="M153.96,-72.89C153.96,-72.89 153.96,-39.63 153.96,-39.63"/>
<polygon fill="#475569" stroke="#475569" points="157.46,-39.63 153.96,-29.63 150.46,-39.63 157.46,-39.63"/>
</g>
</g>
</svg>
