<?xml version="1.0" encoding="UTF-8" standalone="no"?>
<!DOCTYPE svg PUBLIC "-//W3C//DTD SVG 1.1//EN"
 "http://www.w3.org/Graphics/SVG/1.1/DTD/svg11.dtd">
<!-- Generated by graphviz version 14.1.5 (0)
 -->
<!-- Title: state_machine Pages: 1 -->
<svg width="1204pt" height="178pt"
 viewBox="0.00 0.00 1204.00 178.00" xmlns="http://www.w3.org/2000/svg" xmlns:xlink="http://www.w3.org/1999/xlink">
<g id="graph0" class="graph" transform="scale(1 1) rotate(0) translate(4 174.25)">
<title>state_machine</title>
<polygon fill="white" stroke="none" points="-4,4 -4,-174.25 1199.61,-174.25 1199.61,4 -4,4"/>
<text xml:space="preserve" text-anchor="middle" x="597.81" y="-145.35" font-family="Times,serif" font-size="22.00">财务记录对象状态机图</text>
<!-- start -->
<g id="node1" class="node">
<title>start</title>
<ellipse fill="#111827" stroke="#475569" cx="6.48" cy="-45.5" rx="6.48" ry="6.48"/>
</g>
<!-- editing -->
<g id="node2" class="node">
<title>editing</title>
<path fill="#e0f2fe" stroke="#475569" d="M135.96,-27.5C135.96,-27.5 267.71,-27.5 267.71,-27.5 273.71,-27.5 279.71,-33.5 279.71,-39.5 279.71,-39.5 279.71,-51.5 279.71,-51.5 279.71,-57.5 273.71,-63.5 267.71,-63.5 267.71,-63.5 135.96,-63.5 135.96,-63.5 129.96,-63.5 123.96,-57.5 123.96,-51.5 123.96,-51.5 123.96,-39.5 123.96,-39.5 123.96,-33.5 129.96,-27.5 135.96,-27.5"/>
<text xml:space="preserve" text-anchor="middle" x="148.84" y="-44.05" font-family="Sans" font-size="11.00">录入中</text>
<polyline fill="none" stroke="#475569" points="173.71,-28.25 173.71,-63.5"/>
<text xml:space="preserve" text-anchor="middle" x="226.71" y="-44.05" font-family="Sans" font-size="11.00">前端表单暂存状态</text>
</g>
<!-- start&#45;&gt;editing -->
<g id="edge1" class="edge">
<title>start&#45;&gt;editing</title>
<path fill="none" stroke="#475569" d="M13.43,-45.5C13.43,-45.5 112.17,-45.5 112.17,-45.5"/>
<polygon fill="#475569" stroke="#475569" points="112.17,-49 122.17,-45.5 112.17,-42 112.17,-49"/>
<text xml:space="preserve" text-anchor="middle" x="68.46" y="-51" font-family="Sans" font-size="10.00">开始新增</text>
</g>
<!-- editing&#45;&gt;editing -->
<g id="edge2" class="edge">
<title>editing&#45;&gt;editing</title>
<path fill="none" stroke="#475569" d="M123.57,-57.99C94.57,-57.99 68.61,-57.99 68.61,-57.99 68.61,-57.99 68.61,-82 68.61,-82 68.61,-82 314.61,-82 314.61,-82 314.61,-82 314.61,-56.6 314.61,-56.6 314.61,-56.6 291.67,-56.6 291.67,-56.6"/>
<polygon fill="#475569" stroke="#475569" points="291.67,-53.1 281.67,-56.6 291.67,-60.1 291.67,-53.1"/>
</g>
<!-- active -->
<g id="node3" class="node">
<title>active</title>
<path fill="#dcfce7" stroke="#475569" d="M431.96,-27.5C431.96,-27.5 648.46,-27.5 648.46,-27.5 654.46,-27.5 660.46,-33.5 660.46,-39.5 660.46,-39.5 660.46,-51.5 660.46,-51.5 660.46,-57.5 654.46,-63.5 648.46,-63.5 648.46,-63.5 431.96,-63.5 431.96,-63.5 425.96,-63.5 419.96,-57.5 419.96,-51.5 419.96,-51.5 419.96,-39.5 419.96,-39.5 419.96,-33.5 425.96,-27.5 431.96,-27.5"/>
<text xml:space="preserve" text-anchor="middle" x="439.21" y="-44.05" font-family="Sans" font-size="11.00">有效</text>
<polyline fill="none" stroke="#475569" points="458.46,-28.25 458.46,-63.5"/>
<text xml:space="preserve" text-anchor="middle" x="559.46" y="-44.05" font-family="Sans" font-size="11.00">status = 1\l可查询、可统计、可编辑\l</text>
</g>
<!-- editing&#45;&gt;active -->
<g id="edge3" class="edge">
<title>editing&#45;&gt;active</title>
<path fill="none" stroke="#475569" d="M279.89,-49.2C279.89,-49.2 408.26,-49.2 408.26,-49.2"/>
<polygon fill="#475569" stroke="#475569" points="408.26,-52.7 418.26,-49.2 408.26,-45.7 408.26,-52.7"/>
<text xml:space="preserve" text-anchor="middle" x="349.84" y="-51" font-family="Sans" font-size="10.00">提交且校验通过</text>
</g>
<!-- active&#45;&gt;active -->
<g id="edge4" class="edge">
<title>active&#45;&gt;active</title>
<path fill="none" stroke="#475569" d="M419.53,-34.4C399.24,-34.4 384.61,-34.4 384.61,-34.4 384.61,-34.4 384.61,-18 384.61,-18 384.61,-18 688.61,-18 688.61,-18 688.61,-18 688.61,-39.33 688.61,-39.33 688.61,-39.33 672.21,-39.33 672.21,-39.33"/>
<polygon fill="#475569" stroke="#475569" points="672.21,-35.83 662.21,-39.33 672.21,-42.83 672.21,-35.83"/>
</g>
<!-- active&#45;&gt;active -->
<g id="edge5" class="edge">
<title>active&#45;&gt;active</title>
<path fill="none" stroke="#475569" d="M419.5,-41.8C381.67,-41.8 349.61,-41.8 349.61,-41.8 349.61,-41.8 349.61,-9 349.61,-9 349.61,-9 715.61,-9 715.61,-9 715.61,-9 715.61,-45.5 715.61,-45.5 715.61,-45.5 672.11,-45.5 672.11,-45.5"/>
<polygon fill="#475569" stroke="#475569" points="672.11,-42 662.11,-45.5 672.11,-49 672.11,-42"/>
</g>
<!-- disabled -->
<g id="node4" class="node">
<title>disabled</title>
<path fill="#fee2e2" stroke="#475569" d="M783.46,-27.5C783.46,-27.5 1011.21,-27.5 1011.21,-27.5 1017.21,-27.5 1023.21,-33.5 1023.21,-39.5 1023.21,-39.5 1023.21,-51.5 1023.21,-51.5 1023.21,-57.5 1017.21,-63.5 1011.21,-63.5 1011.21,-63.5 783.46,-63.5 783.46,-63.5 777.46,-63.5 771.46,-57.5 771.46,-51.5 771.46,-51.5 771.46,-39.5 771.46,-39.5 771.46,-33.5 777.46,-27.5 783.46,-27.5"/>
<text xml:space="preserve" text-anchor="middle" x="790.71" y="-44.05" font-family="Sans" font-size="11.00">停用</text>
<polyline fill="none" stroke="#475569" points="809.96,-28.25 809.96,-63.5"/>
<text xml:space="preserve" text-anchor="middle" x="916.59" y="-44.05" font-family="Sans" font-size="11.00">status = 0\l保留历史，不参与新增引用\l</text>
</g>
<!-- active&#45;&gt;disabled -->
<g id="edge6" class="edge">
<title>active&#45;&gt;disabled</title>
<path fill="none" stroke="#475569" d="M660.62,-51.67C660.62,-51.67 759.53,-51.67 759.53,-51.67"/>
<polygon fill="#475569" stroke="#475569" points="759.53,-55.17 769.53,-51.67 759.53,-48.17 759.53,-55.17"/>
<text xml:space="preserve" text-anchor="middle" x="715.96" y="-86" font-family="Sans" font-size="10.00">停用</text>
</g>
<!-- disabled&#45;&gt;active -->
<g id="edge7" class="edge">
<title>disabled&#45;&gt;active</title>
<path fill="none" stroke="#475569" d="M771.17,-57.83C771.17,-57.83 672.44,-57.83 672.44,-57.83"/>
<polygon fill="#475569" stroke="#475569" points="672.44,-54.33 662.44,-57.83 672.44,-61.33 672.44,-54.33"/>
<text xml:space="preserve" text-anchor="middle" x="715.96" y="-16" font-family="Sans" font-size="10.00">重新启用</text>
</g>
<!-- disabled&#45;&gt;disabled -->
<g id="edge8" class="edge">
<title>disabled&#45;&gt;disabled</title>
<path fill="none" stroke="#475569" d="M771.09,-33.17C754.78,-33.17 743.61,-33.17 743.61,-33.17 743.61,-33.17 743.61,0 743.61,0 743.61,0 1098.61,0 1098.61,0 1098.61,0 1098.61,-30.65 1098.61,-30.65 1098.61,-30.65 1035.18,-30.65 1035.18,-30.65"/>
<polygon fill="#475569" stroke="#475569" points="1035.18,-27.15 1025.18,-30.65 1035.18,-34.15 1035.18,-27.15"/>
</g>
<!-- end -->
<g id="node5" class="node">
<title>end</title>
<ellipse fill="#111827" stroke="#475569" cx="1184.41" cy="-45.5" rx="7.2" ry="7.2"/>
<ellipse fill="none" stroke="#475569" cx="1184.41" cy="-45.5" rx="11.2" ry="11.2"/>
</g>
<!-- disabled&#45;&gt;end -->
<g id="edge9" class="edge">
<title>disabled&#45;&gt;end</title>
<path fill="none" stroke="#475569" stroke-dasharray="5,2" d="M1023.67,-45.5C1023.67,-45.5 1161.44,-45.5 1161.44,-45.5"/>
<polygon fill="#475569" stroke="#475569" points="1161.44,-49 1171.44,-45.5 1161.44,-42 1161.44,-49"/>
<text xml:space="preserve" text-anchor="middle" x="1098.21" y="-51" font-family="Sans" font-size="10.00">课程版不物理删除</text>
</g>
</g>
</svg>
