<?xml version="1.0" encoding="UTF-8" standalone="no"?>
<!DOCTYPE svg PUBLIC "-//W3C//DTD SVG 1.1//EN"
 "http://www.w3.org/Graphics/SVG/1.1/DTD/svg11.dtd">
<!-- Generated by graphviz version 14.1.5 (0)
 -->
<!-- Title: component_diagram Pages: 1 -->
<svg width="2226pt" height="395pt"
 viewBox="0.00 0.00 2226.00 395.00" xmlns="http://www.w3.org/2000/svg" xmlns:xlink="http://www.w3.org/1999/xlink">
<g id="graph0" class="graph" transform="scale(1 1) rotate(0) translate(4 391.25)">
<title>component_diagram</title>
<polygon fill="white" stroke="none" points="-4,4 -4,-391.25 2222.25,-391.25 2222.25,4 -4,4"/>
<text xml:space="preserve" text-anchor="middle" x="1109.12" y="-362.35" font-family="Times,serif" font-size="22.00">学校部门财务管理系统组件图</text>
<g id="clust1" class="cluster">
<title>cluster_client</title>
<path fill="none" stroke="#93c5fd" d="M20,-133C20,-133 1091.75,-133 1091.75,-133 1097.75,-133 1103.75,-139 1103.75,-145 1103.75,-145 1103.75,-265 1103.75,-265 1103.75,-271 1097.75,-277 1091.75,-277 1091.75,-277 20,-277 20,-277 14,-277 8,-271 8,-265 8,-265 8,-145 8,-145 8,-139 14,-133 20,-133"/>
<text xml:space="preserve" text-anchor="middle" x="555.88" y="-252.1" font-family="Times,serif" font-size="22.00">客户端</text>
</g>
<g id="clust2" class="cluster">
<title>cluster_server</title>
<path fill="none" stroke="#86efac" d="M1222,-62C1222,-62 1999.25,-62 1999.25,-62 2005.25,-62 2011.25,-68 2011.25,-74 2011.25,-74 2011.25,-327 2011.25,-327 2011.25,-333 2005.25,-339 1999.25,-339 1999.25,-339 1222,-339 1222,-339 1216,-339 1210,-333 1210,-327 1210,-327 1210,-74 1210,-74 1210,-68 1216,-62 1222,-62"/>
<text xml:space="preserve" text-anchor="middle" x="1610.62" y="-314.1" font-family="Times,serif" font-size="22.00">应用服务端</text>
</g>
<g id="clust3" class="cluster">
<title>cluster_data</title>
<path fill="none" stroke="#fcd34d" d="M2096.5,-8C2096.5,-8 2198.25,-8 2198.25,-8 2204.25,-8 2210.25,-14 2210.25,-20 2210.25,-20 2210.25,-175 2210.25,-175 2210.25,-181 2204.25,-187 2198.25,-187 2198.25,-187 2096.5,-187 2096.5,-187 2090.5,-187 2084.5,-181 2084.5,-175 2084.5,-175 2084.5,-20 2084.5,-20 2084.5,-14 2090.5,-8 2096.5,-8"/>
<text xml:space="preserve" text-anchor="middle" x="2147.38" y="-162.1" font-family="Times,serif" font-size="22.00">数据层</text>
</g>
<!-- browser -->
<g id="node1" class="node">
<title>browser</title>
<path fill="white" stroke="#475569" d="M89,-206C89,-206 28,-206 28,-206 22,-206 16,-200 16,-194 16,-194 16,-182 16,-182 16,-176 22,-170 28,-170 28,-170 89,-170 89,-170 95,-170 101,-176 101,-182 101,-182 101,-194 101,-194 101,-200 95,-206 89,-206"/>
<text xml:space="preserve" text-anchor="middle" x="58.5" y="-185.43" font-family="Sans" font-size="11.00">Web Browser</text>
</g>
<!-- frontend -->
<g id="node2" class="node">
<title>frontend</title>
<path fill="white" stroke="#475569" d="M293.25,-207.75C293.25,-207.75 218,-207.75 218,-207.75 212,-207.75 206,-201.75 206,-195.75 206,-195.75 206,-180.25 206,-180.25 206,-174.25 212,-168.25 218,-168.25 218,-168.25 293.25,-168.25 293.25,-168.25 299.25,-168.25 305.25,-174.25 305.25,-180.25 305.25,-180.25 305.25,-195.75 305.25,-195.75 305.25,-201.75 299.25,-207.75 293.25,-207.75"/>
<text xml:space="preserve" text-anchor="middle" x="255.62" y="-193.3" font-family="Sans" font-size="11.00">&lt;&lt;component&gt;&gt;</text>
<text xml:space="preserve" text-anchor="middle" x="255.62" y="-177.55" font-family="Sans" font-size="11.00">Vue 3 SPA</text>
</g>
<!-- browser&#45;&gt;frontend -->
<g id="edge1" class="edge">
<title>browser&#45;&gt;frontend</title>
<path fill="none" stroke="#475569" d="M101.27,-188C101.27,-188 194.11,-188 194.11,-188"/>
<polygon fill="#475569" stroke="#475569" points="194.11,-191.5 204.11,-188 194.11,-184.5 194.11,-191.5"/>
<text xml:space="preserve" text-anchor="middle" x="153.5" y="-193.5" font-family="Sans" font-size="10.00">加载页面</text>
</g>
<!-- router -->
<g id="node3" class="node">
<title>router</title>
<path fill="white" stroke="#475569" d="M541,-207.75C541,-207.75 422.25,-207.75 422.25,-207.75 416.25,-207.75 410.25,-201.75 410.25,-195.75 410.25,-195.75 410.25,-180.25 410.25,-180.25 410.25,-174.25 416.25,-168.25 422.25,-168.25 422.25,-168.25 541,-168.25 541,-168.25 547,-168.25 553,-174.25 553,-180.25 553,-180.25 553,-195.75 553,-195.75 553,-201.75 547,-207.75 541,-207.75"/>
<text xml:space="preserve" text-anchor="middle" x="481.62" y="-193.3" font-family="Sans" font-size="11.00">&lt;&lt;component&gt;&gt;</text>
<text xml:space="preserve" text-anchor="middle" x="481.62" y="-177.55" font-family="Sans" font-size="11.00">Vue Router / MainLayout</text>
</g>
<!-- frontend&#45;&gt;router -->
<g id="edge2" class="edge">
<title>frontend&#45;&gt;router</title>
<path fill="none" stroke="#475569" d="M305.5,-188C305.5,-188 398.49,-188 398.49,-188"/>
<polygon fill="#475569" stroke="#475569" points="398.49,-191.5 408.49,-188 398.49,-184.5 398.49,-191.5"/>
<text xml:space="preserve" text-anchor="middle" x="357.75" y="-193.5" font-family="Sans" font-size="10.00">路由控制</text>
</g>
<!-- pages -->
<g id="node4" class="node">
<title>pages</title>
<path fill="white" stroke="#475569" d="M845.75,-229.12C845.75,-229.12 670,-229.12 670,-229.12 664,-229.12 658,-223.12 658,-217.12 658,-217.12 658,-152.88 658,-152.88 658,-146.88 664,-140.88 670,-140.88 670,-140.88 845.75,-140.88 845.75,-140.88 851.75,-140.88 857.75,-146.88 857.75,-152.88 857.75,-152.88 857.75,-217.12 857.75,-217.12 857.75,-223.12 851.75,-229.12 845.75,-229.12"/>
<text xml:space="preserve" text-anchor="middle" x="757.88" y="-214.68" font-family="Sans" font-size="11.00">&lt;&lt;component&gt;&gt;</text>
<text xml:space="preserve" text-anchor="middle" x="757.88" y="-198.93" font-family="Sans" font-size="11.00">页面组件</text>
<text xml:space="preserve" text-anchor="middle" x="757.88" y="-181.68" font-family="Sans" font-size="11.00">Login / Dashboard / User /</text>
<text xml:space="preserve" text-anchor="middle" x="757.88" y="-165.93" font-family="Sans" font-size="11.00">Department / Account /</text>
<text xml:space="preserve" text-anchor="middle" x="757.88" y="-150.18" font-family="Sans" font-size="11.00">Income / Expense / Report / Backup</text>
</g>
<!-- router&#45;&gt;pages -->
<g id="edge3" class="edge">
<title>router&#45;&gt;pages</title>
<path fill="none" stroke="#475569" d="M553.49,-188C553.49,-188 646.01,-188 646.01,-188"/>
<polygon fill="#475569" stroke="#475569" points="646.01,-191.5 656.01,-188 646.01,-184.5 646.01,-191.5"/>
<text xml:space="preserve" text-anchor="middle" x="605.5" y="-193.5" font-family="Sans" font-size="10.00">组织视图</text>
</g>
<!-- api -->
<g id="node5" class="node">
<title>api</title>
<path fill="white" stroke="#475569" d="M1083.75,-216.38C1083.75,-216.38 1001,-216.38 1001,-216.38 995,-216.38 989,-210.38 989,-204.38 989,-204.38 989,-171.62 989,-171.62 989,-165.62 995,-159.62 1001,-159.62 1001,-159.62 1083.75,-159.62 1083.75,-159.62 1089.75,-159.62 1095.75,-165.62 1095.75,-171.62 1095.75,-171.62 1095.75,-204.38 1095.75,-204.38 1095.75,-210.38 1089.75,-216.38 1083.75,-216.38"/>
<text xml:space="preserve" text-anchor="middle" x="1042.38" y="-201.93" font-family="Sans" font-size="11.00">&lt;&lt;component&gt;&gt;</text>
<text xml:space="preserve" text-anchor="middle" x="1042.38" y="-186.18" font-family="Sans" font-size="11.00">API 模块</text>
<text xml:space="preserve" text-anchor="middle" x="1042.38" y="-168.93" font-family="Sans" font-size="11.00">http.js / finance.js</text>
</g>
<!-- pages&#45;&gt;api -->
<g id="edge4" class="edge">
<title>pages&#45;&gt;api</title>
<path fill="none" stroke="#475569" d="M858.18,-188C858.18,-188 977.28,-188 977.28,-188"/>
<polygon fill="#475569" stroke="#475569" points="977.28,-191.5 987.28,-188 977.28,-184.5 977.28,-191.5"/>
<text xml:space="preserve" text-anchor="middle" x="923.38" y="-193.58" font-family="Sans" font-size="10.00">发起 REST 请求</text>
</g>
<!-- controllers -->
<g id="node6" class="node">
<title>controllers</title>
<path fill="white" stroke="#475569" d="M1405.75,-231.38C1405.75,-231.38 1230,-231.38 1230,-231.38 1224,-231.38 1218,-225.38 1218,-219.38 1218,-219.38 1218,-156.62 1218,-156.62 1218,-150.62 1224,-144.62 1230,-144.62 1230,-144.62 1405.75,-144.62 1405.75,-144.62 1411.75,-144.62 1417.75,-150.62 1417.75,-156.62 1417.75,-156.62 1417.75,-219.38 1417.75,-219.38 1417.75,-225.38 1411.75,-231.38 1405.75,-231.38"/>
<text xml:space="preserve" text-anchor="middle" x="1317.88" y="-216.93" font-family="Sans" font-size="11.00">&lt;&lt;component&gt;&gt;</text>
<text xml:space="preserve" text-anchor="middle" x="1317.88" y="-201.18" font-family="Sans" font-size="11.00">REST Controllers</text>
<text xml:space="preserve" text-anchor="middle" x="1317.88" y="-185.43" font-family="Sans" font-size="11.00">Auth / User / Department /</text>
<text xml:space="preserve" text-anchor="middle" x="1317.88" y="-169.68" font-family="Sans" font-size="11.00">Account / Category /</text>
<text xml:space="preserve" text-anchor="middle" x="1317.88" y="-153.93" font-family="Sans" font-size="11.00">Income / Expense / Report / Backup</text>
</g>
<!-- api&#45;&gt;controllers -->
<g id="edge5" class="edge">
<title>api&#45;&gt;controllers</title>
<path fill="none" stroke="#475569" d="M1096.15,-188C1096.15,-188 1206.16,-188 1206.16,-188"/>
<polygon fill="#475569" stroke="#475569" points="1206.16,-191.5 1216.16,-188 1206.16,-184.5 1206.16,-191.5"/>
<text xml:space="preserve" text-anchor="middle" x="1156.88" y="-192.75" font-family="Sans" font-size="10.00">JSON / HTTP</text>
</g>
<!-- services -->
<g id="node7" class="node">
<title>services</title>
<path fill="white" stroke="#475569" d="M1742,-172.25C1742,-172.25 1558,-172.25 1558,-172.25 1552,-172.25 1546,-166.25 1546,-160.25 1546,-160.25 1546,-81.75 1546,-81.75 1546,-75.75 1552,-69.75 1558,-69.75 1558,-69.75 1742,-69.75 1742,-69.75 1748,-69.75 1754,-75.75 1754,-81.75 1754,-81.75 1754,-160.25 1754,-160.25 1754,-166.25 1748,-172.25 1742,-172.25"/>
<text xml:space="preserve" text-anchor="middle" x="1650" y="-157.8" font-family="Sans" font-size="11.00">&lt;&lt;component&gt;&gt;</text>
<text xml:space="preserve" text-anchor="middle" x="1650" y="-142.05" font-family="Sans" font-size="11.00">Business Services</text>
<text xml:space="preserve" text-anchor="middle" x="1650" y="-126.3" font-family="Sans" font-size="11.00">AuthService / UserService /</text>
<text xml:space="preserve" text-anchor="middle" x="1650" y="-110.55" font-family="Sans" font-size="11.00">DepartmentService / AccountService /</text>
<text xml:space="preserve" text-anchor="middle" x="1650" y="-94.8" font-family="Sans" font-size="11.00">CategoryService / RecordService /</text>
<text xml:space="preserve" text-anchor="middle" x="1650" y="-79.05" font-family="Sans" font-size="11.00">ReportService / BackupService</text>
</g>
<!-- controllers&#45;&gt;services -->
<g id="edge6" class="edge">
<title>controllers&#45;&gt;services</title>
<path fill="none" stroke="#475569" d="M1417.97,-158.44C1417.97,-158.44 1534.27,-158.44 1534.27,-158.44"/>
<polygon fill="#475569" stroke="#475569" points="1534.27,-161.94 1544.27,-158.44 1534.27,-154.94 1534.27,-161.94"/>
<text xml:space="preserve" text-anchor="middle" x="1481.88" y="-143.5" font-family="Sans" font-size="10.00">调用业务方法</text>
</g>
<!-- config -->
<g id="node9" class="node">
<title>config</title>
<path fill="white" stroke="#475569" d="M1729.25,-290.5C1729.25,-290.5 1570.75,-290.5 1570.75,-290.5 1564.75,-290.5 1558.75,-284.5 1558.75,-278.5 1558.75,-278.5 1558.75,-231.5 1558.75,-231.5 1558.75,-225.5 1564.75,-219.5 1570.75,-219.5 1570.75,-219.5 1729.25,-219.5 1729.25,-219.5 1735.25,-219.5 1741.25,-225.5 1741.25,-231.5 1741.25,-231.5 1741.25,-278.5 1741.25,-278.5 1741.25,-284.5 1735.25,-290.5 1729.25,-290.5"/>
<text xml:space="preserve" text-anchor="middle" x="1650" y="-276.05" font-family="Sans" font-size="11.00">&lt;&lt;component&gt;&gt;</text>
<text xml:space="preserve" text-anchor="middle" x="1650" y="-260.3" font-family="Sans" font-size="11.00">Config &amp; Common</text>
<text xml:space="preserve" text-anchor="middle" x="1650" y="-244.55" font-family="Sans" font-size="11.00">SecurityConfig / WebConfig /</text>
<text xml:space="preserve" text-anchor="middle" x="1650" y="-228.8" font-family="Sans" font-size="11.00">ApiResponse / ExceptionHandler</text>
</g>
<!-- controllers&#45;&gt;config -->
<g id="edge7" class="edge">
<title>controllers&#45;&gt;config</title>
<path fill="none" stroke="#475569" stroke-dasharray="5,2" d="M1417.97,-225.44C1417.97,-225.44 1546.8,-225.44 1546.8,-225.44"/>
<polygon fill="#475569" stroke="#475569" points="1546.8,-228.94 1556.8,-225.44 1546.8,-221.94 1546.8,-228.94"/>
<text xml:space="preserve" text-anchor="middle" x="1481.88" y="-243.58" font-family="Sans" font-size="10.00">统一响应/异常</text>
</g>
<!-- mappers -->
<g id="node8" class="node">
<title>mappers</title>
<path fill="white" stroke="#475569" d="M1991.25,-222.75C1991.25,-222.75 1885.25,-222.75 1885.25,-222.75 1879.25,-222.75 1873.25,-216.75 1873.25,-210.75 1873.25,-210.75 1873.25,-195.25 1873.25,-195.25 1873.25,-189.25 1879.25,-183.25 1885.25,-183.25 1885.25,-183.25 1991.25,-183.25 1991.25,-183.25 1997.25,-183.25 2003.25,-189.25 2003.25,-195.25 2003.25,-195.25 2003.25,-210.75 2003.25,-210.75 2003.25,-216.75 1997.25,-222.75 1991.25,-222.75"/>
<text xml:space="preserve" text-anchor="middle" x="1938.25" y="-208.3" font-family="Sans" font-size="11.00">&lt;&lt;component&gt;&gt;</text>
<text xml:space="preserve" text-anchor="middle" x="1938.25" y="-192.55" font-family="Sans" font-size="11.00">MyBatis&#45;Plus Mappers</text>
</g>
<!-- services&#45;&gt;mappers -->
<g id="edge8" class="edge">
<title>services&#45;&gt;mappers</title>
<path fill="none" stroke="#475569" d="M1747.25,-172.36C1747.25,-188.11 1747.25,-201.38 1747.25,-201.38 1747.25,-201.38 1861.27,-201.38 1861.27,-201.38"/>
<polygon fill="#475569" stroke="#475569" points="1861.27,-204.88 1871.27,-201.38 1861.27,-197.88 1861.27,-204.88"/>
<text xml:space="preserve" text-anchor="middle" x="1813.62" y="-204.75" font-family="Sans" font-size="10.00">CRUD / SQL</text>
</g>
<!-- mysql -->
<g id="node10" class="node">
<title>mysql</title>
<path fill="#f8fafc" stroke="#475569" d="M2177.5,-135.73C2177.5,-137.53 2164,-139 2147.38,-139 2130.75,-139 2117.25,-137.53 2117.25,-135.73 2117.25,-135.73 2117.25,-106.27 2117.25,-106.27 2117.25,-104.47 2130.75,-103 2147.38,-103 2164,-103 2177.5,-104.47 2177.5,-106.27 2177.5,-106.27 2177.5,-135.73 2177.5,-135.73"/>
<path fill="none" stroke="#475569" d="M2177.5,-135.73C2177.5,-133.92 2164,-132.45 2147.38,-132.45 2130.75,-132.45 2117.25,-133.92 2117.25,-135.73"/>
<text xml:space="preserve" text-anchor="middle" x="2147.38" y="-118.42" font-family="Sans" font-size="11.00">MySQL 8</text>
</g>
<!-- services&#45;&gt;mysql -->
<g id="edge11" class="edge">
<title>services&#45;&gt;mysql</title>
<path fill="none" stroke="#475569" stroke-dasharray="5,2" d="M1754.27,-121C1754.27,-121 2105.34,-121 2105.34,-121"/>
<polygon fill="#475569" stroke="#475569" points="2105.34,-124.5 2115.34,-121 2105.34,-117.5 2105.34,-124.5"/>
<text xml:space="preserve" text-anchor="middle" x="1938.25" y="-126.5" font-family="Sans" font-size="10.00">JdbcTemplate 统计/备份</text>
</g>
<!-- backup_dir -->
<g id="node11" class="node">
<title>backup_dir</title>
<polygon fill="#f8fafc" stroke="#475569" points="2202.25,-55.75 2096.5,-55.75 2092.5,-51.75 2092.5,-16.25 2198.25,-16.25 2202.25,-20.25 2202.25,-55.75"/>
<polyline fill="none" stroke="#475569" points="2198.25,-51.75 2092.5,-51.75"/>
<polyline fill="none" stroke="#475569" points="2198.25,-51.75 2198.25,-16.25"/>
<polyline fill="none" stroke="#475569" points="2198.25,-51.75 2202.25,-55.75"/>
<text xml:space="preserve" text-anchor="middle" x="2147.38" y="-41.3" font-family="Sans" font-size="11.00">Backup Files</text>
<text xml:space="preserve" text-anchor="middle" x="2147.38" y="-25.55" font-family="Sans" font-size="11.00">backend/backups/</text>
</g>
<!-- services&#45;&gt;backup_dir -->
<g id="edge9" class="edge">
<title>services&#45;&gt;backup_dir</title>
<path fill="none" stroke="#475569" d="M1754.44,-86.38C1888.85,-86.38 2105.25,-86.38 2105.25,-86.38 2105.25,-86.38 2105.25,-67.71 2105.25,-67.71"/>
<polygon fill="#475569" stroke="#475569" points="2108.75,-67.71 2105.25,-57.71 2101.75,-67.71 2108.75,-67.71"/>
<text xml:space="preserve" text-anchor="middle" x="1938.25" y="-17.5" font-family="Sans" font-size="10.00">读写备份文件</text>
</g>
<!-- mappers&#45;&gt;mysql -->
<g id="edge10" class="edge">
<title>mappers&#45;&gt;mysql</title>
<path fill="none" stroke="#475569" d="M2003.52,-203C2064.84,-203 2147.25,-203 2147.25,-203 2147.25,-203 2147.25,-150.71 2147.25,-150.71"/>
<polygon fill="#475569" stroke="#475569" points="2150.75,-150.71 2147.25,-140.71 2143.75,-150.71 2150.75,-150.71"/>
<text xml:space="preserve" text-anchor="middle" x="2047.88" y="-204.75" font-family="Sans" font-size="10.00">JDBC</text>
</g>
</g>
</svg>
