<?xml version="1.0" encoding="UTF-8" standalone="no"?>
<!DOCTYPE svg PUBLIC "-//W3C//DTD SVG 1.1//EN"
 "http://www.w3.org/Graphics/SVG/1.1/DTD/svg11.dtd">
<!-- Generated by graphviz version 14.1.5 (0)
 -->
<!-- Title: deployment_diagram Pages: 1 -->
<svg width="1105pt" height="311pt"
 viewBox="0.00 0.00 1105.00 311.00" xmlns="http://www.w3.org/2000/svg" xmlns:xlink="http://www.w3.org/1999/xlink">
<g id="graph0" class="graph" transform="scale(1 1) rotate(0) translate(4 307.25)">
<title>deployment_diagram</title>
<polygon fill="white" stroke="none" points="-4,4 -4,-307.25 1101.25,-307.25 1101.25,4 -4,4"/>
<text xml:space="preserve" text-anchor="middle" x="548.62" y="-278.35" font-family="Times,serif" font-size="22.00">学校部门财务管理系统部署图</text>
<g id="clust1" class="cluster">
<title>cluster_web</title>
<path fill="none" stroke="#93c5fd" d="M221,-110C221,-110 529.25,-110 529.25,-110 535.25,-110 541.25,-116 541.25,-122 541.25,-122 541.25,-227 541.25,-227 541.25,-233 535.25,-239 529.25,-239 529.25,-239 221,-239 221,-239 215,-239 209,-233 209,-227 209,-227 209,-122 209,-122 209,-116 215,-110 221,-110"/>
<text xml:space="preserve" text-anchor="middle" x="375.12" y="-214.1" font-family="Times,serif" font-size="22.00">Web 前端节点</text>
</g>
<g id="clust2" class="cluster">
<title>cluster_app</title>
<path fill="none" stroke="#86efac" d="M662.5,-126C662.5,-126 1047.62,-126 1047.62,-126 1053.62,-126 1059.62,-132 1059.62,-138 1059.62,-138 1059.62,-243 1059.62,-243 1059.62,-249 1053.62,-255 1047.62,-255 1047.62,-255 662.5,-255 662.5,-255 656.5,-255 650.5,-249 650.5,-243 650.5,-243 650.5,-138 650.5,-138 650.5,-132 656.5,-126 662.5,-126"/>
<text xml:space="preserve" text-anchor="middle" x="855.06" y="-230.1" font-family="Times,serif" font-size="22.00">应用服务器</text>
</g>
<g id="clust3" class="cluster">
<title>cluster_db</title>
<path fill="none" stroke="#fcd34d" d="M916.25,-8C916.25,-8 1077.25,-8 1077.25,-8 1083.25,-8 1089.25,-14 1089.25,-20 1089.25,-20 1089.25,-106 1089.25,-106 1089.25,-112 1083.25,-118 1077.25,-118 1077.25,-118 916.25,-118 916.25,-118 910.25,-118 904.25,-112 904.25,-106 904.25,-106 904.25,-20 904.25,-20 904.25,-14 910.25,-8 916.25,-8"/>
<text xml:space="preserve" text-anchor="middle" x="996.75" y="-93.1" font-family="Times,serif" font-size="22.00">数据库服务器</text>
</g>
<!-- user -->
<g id="node1" class="node">
<title>user</title>
<path fill="#fff7ed" stroke="#475569" d="M81.25,-199.12C81.25,-199.12 12,-199.12 12,-199.12 6,-199.12 0,-193.12 0,-187.12 0,-187.12 0,-152.88 0,-152.88 0,-146.88 6,-140.88 12,-140.88 12,-140.88 81.25,-140.88 81.25,-140.88 87.25,-140.88 93.25,-146.88 93.25,-152.88 93.25,-152.88 93.25,-187.12 93.25,-187.12 93.25,-193.12 87.25,-199.12 81.25,-199.12"/>
<text xml:space="preserve" text-anchor="middle" x="46.62" y="-184.68" font-family="Sans" font-size="11.00">用户终端</text>
<text xml:space="preserve" text-anchor="middle" x="46.62" y="-167.43" font-family="Sans" font-size="11.00">管理员 / 财务员</text>
<text xml:space="preserve" text-anchor="middle" x="46.62" y="-150.18" font-family="Sans" font-size="11.00">Chrome / Edge</text>
</g>
<!-- browser_cache -->
<g id="node2" class="node">
<title>browser_cache</title>
<polygon fill="#dbeafe" stroke="#475569" points="310.25,-190.5 221,-190.5 217,-186.5 217,-149.5 306.25,-149.5 310.25,-153.5 310.25,-190.5"/>
<polyline fill="none" stroke="#475569" points="306.25,-186.5 217,-186.5"/>
<polyline fill="none" stroke="#475569" points="306.25,-186.5 306.25,-149.5"/>
<polyline fill="none" stroke="#475569" points="306.25,-186.5 310.25,-190.5"/>
<text xml:space="preserve" text-anchor="middle" x="263.62" y="-176.05" font-family="Sans" font-size="11.00">静态资源缓存</text>
<text xml:space="preserve" text-anchor="middle" x="263.62" y="-158.8" font-family="Sans" font-size="11.00">HTML / JS / CSS</text>
</g>
<!-- user&#45;&gt;browser_cache -->
<g id="edge1" class="edge">
<title>user&#45;&gt;browser_cache</title>
<path fill="none" stroke="#475569" d="M93.71,-170C93.71,-170 205.12,-170 205.12,-170"/>
<polygon fill="#475569" stroke="#475569" points="205.12,-173.5 215.12,-170 205.12,-166.5 205.12,-173.5"/>
<text xml:space="preserve" text-anchor="middle" x="155.12" y="-175.5" font-family="Sans" font-size="10.00">HTTPS 访问</text>
</g>
<!-- frontend_app -->
<g id="node3" class="node">
<title>frontend_app</title>
<polygon fill="#bfdbfe" stroke="#475569" points="533.25,-190.25 444.75,-190.25 440.75,-186.25 440.75,-147.75 529.25,-147.75 533.25,-151.75 533.25,-190.25"/>
<polyline fill="none" stroke="#475569" points="529.25,-186.25 440.75,-186.25"/>
<polyline fill="none" stroke="#475569" points="529.25,-186.25 529.25,-147.75"/>
<polyline fill="none" stroke="#475569" points="529.25,-186.25 533.25,-190.25"/>
<text xml:space="preserve" text-anchor="middle" x="487" y="-175.8" font-family="Sans" font-size="11.00">Vue 3 前端应用</text>
<text xml:space="preserve" text-anchor="middle" x="487" y="-158.55" font-family="Sans" font-size="11.00">Vite 构建产物</text>
</g>
<!-- browser_cache&#45;&gt;frontend_app -->
<g id="edge2" class="edge">
<title>browser_cache&#45;&gt;frontend_app</title>
<path fill="none" stroke="#475569" d="M310.72,-169.88C310.72,-169.88 428.84,-169.88 428.84,-169.88"/>
<polygon fill="#475569" stroke="#475569" points="428.84,-173.38 438.84,-169.88 428.84,-166.38 428.84,-173.38"/>
<text xml:space="preserve" text-anchor="middle" x="375.5" y="-181.5" font-family="Sans" font-size="10.00">加载静态资源</text>
</g>
<!-- backend_jar -->
<g id="node4" class="node">
<title>backend_jar</title>
<polygon fill="#dcfce7" stroke="#475569" points="801.25,-188.75 662.5,-188.75 658.5,-184.75 658.5,-149.25 797.25,-149.25 801.25,-153.25 801.25,-188.75"/>
<polyline fill="none" stroke="#475569" points="797.25,-184.75 658.5,-184.75"/>
<polyline fill="none" stroke="#475569" points="797.25,-184.75 797.25,-149.25"/>
<polyline fill="none" stroke="#475569" points="797.25,-184.75 801.25,-188.75"/>
<text xml:space="preserve" text-anchor="middle" x="729.88" y="-174.3" font-family="Sans" font-size="11.00">Spring Boot 3</text>
<text xml:space="preserve" text-anchor="middle" x="729.88" y="-158.55" font-family="Sans" font-size="11.00">finance&#45;management.jar</text>
</g>
<!-- frontend_app&#45;&gt;backend_jar -->
<g id="edge3" class="edge">
<title>frontend_app&#45;&gt;backend_jar</title>
<path fill="none" stroke="#475569" d="M533.54,-169C533.54,-169 646.64,-169 646.64,-169"/>
<polygon fill="#475569" stroke="#475569" points="646.64,-172.5 656.64,-169 646.64,-165.5 646.64,-172.5"/>
<text xml:space="preserve" text-anchor="middle" x="595.88" y="-173.75" font-family="Sans" font-size="10.00">REST / JSON</text>
</g>
<!-- backup_storage -->
<g id="node5" class="node">
<title>backup_storage</title>
<polygon fill="#ecfccb" stroke="#475569" points="1051.62,-206.5 945.88,-206.5 941.88,-202.5 941.88,-165.5 1047.62,-165.5 1051.62,-169.5 1051.62,-206.5"/>
<polyline fill="none" stroke="#475569" points="1047.62,-202.5 941.88,-202.5"/>
<polyline fill="none" stroke="#475569" points="1047.62,-202.5 1047.62,-165.5"/>
<polyline fill="none" stroke="#475569" points="1047.62,-202.5 1051.62,-206.5"/>
<text xml:space="preserve" text-anchor="middle" x="996.75" y="-192.05" font-family="Sans" font-size="11.00">备份目录</text>
<text xml:space="preserve" text-anchor="middle" x="996.75" y="-174.8" font-family="Sans" font-size="11.00">backend/backups/</text>
</g>
<!-- backend_jar&#45;&gt;backup_storage -->
<g id="edge5" class="edge">
<title>backend_jar&#45;&gt;backup_storage</title>
<path fill="none" stroke="#475569" d="M801.74,-177.12C801.74,-177.12 930.18,-177.12 930.18,-177.12"/>
<polygon fill="#475569" stroke="#475569" points="930.18,-180.63 940.18,-177.13 930.18,-173.63 930.18,-180.63"/>
<text xml:space="preserve" text-anchor="middle" x="856.75" y="-197.5" font-family="Sans" font-size="10.00">文件读写</text>
</g>
<!-- mysql -->
<g id="node6" class="node">
<title>mysql</title>
<path fill="#fefce8" stroke="#475569" d="M1081.25,-65.22C1081.25,-67.94 1043.38,-70.16 996.75,-70.16 950.12,-70.16 912.25,-67.94 912.25,-65.22 912.25,-65.22 912.25,-20.78 912.25,-20.78 912.25,-18.06 950.12,-15.84 996.75,-15.84 1043.38,-15.84 1081.25,-18.06 1081.25,-20.78 1081.25,-20.78 1081.25,-65.22 1081.25,-65.22"/>
<path fill="none" stroke="#475569" d="M1081.25,-65.22C1081.25,-62.49 1043.38,-60.28 996.75,-60.28 950.12,-60.28 912.25,-62.49 912.25,-65.22"/>
<text xml:space="preserve" text-anchor="middle" x="996.75" y="-48.3" font-family="Sans" font-size="11.00">MySQL 8</text>
<text xml:space="preserve" text-anchor="middle" x="996.75" y="-32.55" font-family="Sans" font-size="11.00">finance_management_system</text>
</g>
<!-- backend_jar&#45;&gt;mysql -->
<g id="edge4" class="edge">
<title>backend_jar&#45;&gt;mysql</title>
<path fill="none" stroke="#475569" d="M801.69,-157.38C858.12,-157.38 927.25,-157.38 927.25,-157.38 927.25,-157.38 927.25,-80.75 927.25,-80.75"/>
<polygon fill="#475569" stroke="#475569" points="930.75,-80.75 927.25,-70.75 923.75,-80.75 930.75,-80.75"/>
<text xml:space="preserve" text-anchor="middle" x="856.75" y="-83.75" font-family="Sans" font-size="10.00">JDBC</text>
</g>
</g>
</svg>
