<?xml version="1.0" encoding="UTF-8" standalone="no"?>
<!DOCTYPE svg PUBLIC "-//W3C//DTD SVG 1.1//EN"
 "http://www.w3.org/Graphics/SVG/1.1/DTD/svg11.dtd">
<!-- Generated by graphviz version 14.1.5 (0)
 -->
<!-- Title: object_diagram Pages: 1 -->
<svg width="1286pt" height="539pt"
 viewBox="0.00 0.00 1286.00 539.00" xmlns="http://www.w3.org/2000/svg" xmlns:xlink="http://www.w3.org/1999/xlink">
<g id="graph0" class="graph" transform="scale(1 1) rotate(0) translate(4 535.25)">
<title>object_diagram</title>
<polygon fill="white" stroke="none" points="-4,4 -4,-535.25 1281.5,-535.25 1281.5,4 -4,4"/>
<text xml:space="preserve" text-anchor="middle" x="638.75" y="-506.35" font-family="Times,serif" font-size="22.00">财务管理系统对象图（示例运行时快照）</text>
<!-- admin -->
<g id="node1" class="node">
<title>admin</title>
<polygon fill="white" stroke="#475569" points="54.38,-77.5 54.38,-113.5 443.38,-113.5 443.38,-77.5 54.38,-77.5"/>
<text xml:space="preserve" text-anchor="middle" x="99.12" y="-93.12" font-family="Sans" font-size="10.00">admin : SysUser</text>
<polyline fill="none" stroke="#475569" points="143.88,-77.5 143.88,-113.5"/>
<text xml:space="preserve" text-anchor="middle" x="293.62" y="-93.5" font-family="Sans" font-size="10.00">id = 1\lusername = admin\lrealName = 系统管理员\lstatus = 1\l</text>
</g>
<!-- user_role -->
<g id="node3" class="node">
<title>user_role</title>
<polygon fill="white" stroke="#475569" points="828.88,-39.5 828.88,-75.5 1051.38,-75.5 1051.38,-39.5 828.88,-39.5"/>
<text xml:space="preserve" text-anchor="middle" x="880.38" y="-55.5" font-family="Sans" font-size="10.00">link1 : SysUserRole</text>
<polyline fill="none" stroke="#475569" points="931.88,-40.25 931.88,-75.5"/>
<text xml:space="preserve" text-anchor="middle" x="991.62" y="-55.5" font-family="Sans" font-size="10.00">userId = 1\lroleId = 1\l</text>
</g>
<!-- admin&#45;&gt;user_role -->
<g id="edge1" class="edge">
<title>admin&#45;&gt;user_role</title>
<path fill="none" stroke="#475569" d="M430.5,-77.39C430.5,-67.6 430.5,-57.5 430.5,-57.5 430.5,-57.5 678.62,-57.5 828.6,-57.5"/>
<text xml:space="preserve" text-anchor="middle" x="550.25" y="-101" font-family="Sans" font-size="10.00">拥有</text>
</g>
<!-- admin_role -->
<g id="node2" class="node">
<title>admin_role</title>
<polygon fill="white" stroke="#475569" points="79.5,-0.5 79.5,-36.5 418.25,-36.5 418.25,-0.5 79.5,-0.5"/>
<text xml:space="preserve" text-anchor="middle" x="133.25" y="-16.12" font-family="Sans" font-size="10.00">adminRole : SysRole</text>
<polyline fill="none" stroke="#475569" points="187,-0.5 187,-36.5"/>
<text xml:space="preserve" text-anchor="middle" x="302.62" y="-16.5" font-family="Sans" font-size="10.00">id = 1\lroleCode = ADMIN\lroleName = 管理员\l</text>
</g>
<!-- admin_role&#45;&gt;user_role -->
<g id="edge2" class="edge">
<title>admin_role&#45;&gt;user_role</title>
<path fill="none" stroke="#475569" d="M418.51,-18.5C623.28,-18.5 940.5,-18.5 940.5,-18.5 940.5,-18.5 940.5,-29.19 940.5,-39.37"/>
<text xml:space="preserve" text-anchor="middle" x="550.25" y="-24" font-family="Sans" font-size="10.00">关联</text>
</g>
<!-- dept -->
<g id="node4" class="node">
<title>dept</title>
<polygon fill="white" stroke="#475569" points="47.25,-253.5 47.25,-289.5 450.5,-289.5 450.5,-253.5 47.25,-253.5"/>
<text xml:space="preserve" text-anchor="middle" x="94.25" y="-269.12" font-family="Sans" font-size="10.00">dept3 : DeptInfo</text>
<polyline fill="none" stroke="#475569" points="141.25,-253.5 141.25,-289.5"/>
<text xml:space="preserve" text-anchor="middle" x="295.88" y="-269.5" font-family="Sans" font-size="10.00">id = 3\ldeptCode = D003\ldeptName = 信息工程学院\lstatus = 1\l</text>
</g>
<!-- income_rec -->
<g id="node8" class="node">
<title>income_rec</title>
<polygon fill="white" stroke="#475569" points="604.25,-214.5 604.25,-250.5 1276,-250.5 1276,-214.5 604.25,-214.5"/>
<text xml:space="preserve" text-anchor="middle" x="669.62" y="-230.12" font-family="Sans" font-size="10.00">income1 : IncomeRecord</text>
<polyline fill="none" stroke="#475569" points="735,-214.5 735,-250.5"/>
<text xml:space="preserve" text-anchor="middle" x="1005.5" y="-230.5" font-family="Sans" font-size="10.00">recordNo = IN20260601001\lamount = 20000.00\loccurredOn = 2026&#45;06&#45;01\loperatorName = 张会计\lstatus = 1\l</text>
</g>
<!-- dept&#45;&gt;income_rec -->
<g id="edge3" class="edge">
<title>dept&#45;&gt;income_rec</title>
<path fill="none" stroke="#475569" d="M248.5,-253.37C248.5,-243.19 248.5,-232.5 248.5,-232.5 248.5,-232.5 427.88,-232.5 603.94,-232.5"/>
<text xml:space="preserve" text-anchor="middle" x="550.25" y="-238" font-family="Sans" font-size="10.00">归属部门</text>
</g>
<!-- expense_rec -->
<g id="node9" class="node">
<title>expense_rec</title>
<polygon fill="white" stroke="#475569" points="602.75,-394.5 602.75,-430.5 1277.5,-430.5 1277.5,-394.5 602.75,-394.5"/>
<text xml:space="preserve" text-anchor="middle" x="672.62" y="-410.12" font-family="Sans" font-size="10.00">expense1 : ExpenseRecord</text>
<polyline fill="none" stroke="#475569" points="742.5,-394.5 742.5,-430.5"/>
<text xml:space="preserve" text-anchor="middle" x="1010" y="-410.5" font-family="Sans" font-size="10.00">recordNo = EX20260602001\lamount = 3200.00\loccurredOn = 2026&#45;06&#45;02\loperatorName = 张会计\lstatus = 1\l</text>
</g>
<!-- dept&#45;&gt;expense_rec -->
<g id="edge6" class="edge">
<title>dept&#45;&gt;expense_rec</title>
<path fill="none" stroke="#475569" d="M450.78,-271.5C654.92,-271.5 940.5,-271.5 940.5,-271.5 940.5,-271.5 940.5,-355.85 940.5,-394.07"/>
<text xml:space="preserve" text-anchor="middle" x="550.25" y="-298" font-family="Sans" font-size="10.00">归属部门</text>
</g>
<!-- account -->
<g id="node5" class="node">
<title>account</title>
<polygon fill="white" stroke="#475569" points="14.25,-356.5 14.25,-392.5 483.5,-392.5 483.5,-356.5 14.25,-356.5"/>
<text xml:space="preserve" text-anchor="middle" x="75.5" y="-372.12" font-family="Sans" font-size="10.00">account2 : AccountInfo</text>
<polyline fill="none" stroke="#475569" points="136.75,-356.5 136.75,-392.5"/>
<text xml:space="preserve" text-anchor="middle" x="310.12" y="-372.5" font-family="Sans" font-size="10.00">id = 2\laccountCode = A002\laccountName = 学院活动经费户\lstatus = 1\l</text>
</g>
<!-- account&#45;&gt;income_rec -->
<g id="edge4" class="edge">
<title>account&#45;&gt;income_rec</title>
<path fill="none" stroke="#475569" d="M466.5,-356.04C466.5,-319.57 466.5,-241.75 466.5,-241.75 466.5,-241.75 526.51,-241.75 603.81,-241.75"/>
<text xml:space="preserve" text-anchor="middle" x="550.25" y="-358" font-family="Sans" font-size="10.00">使用账户</text>
</g>
<!-- account&#45;&gt;expense_rec -->
<g id="edge7" class="edge">
<title>account&#45;&gt;expense_rec</title>
<path fill="none" stroke="#475569" d="M248.5,-392.65C248.5,-399.8 248.5,-406.33 248.5,-406.33 248.5,-406.33 426.85,-406.33 602.42,-406.33"/>
<text xml:space="preserve" text-anchor="middle" x="550.25" y="-418" font-family="Sans" font-size="10.00">使用账户</text>
</g>
<!-- income_cat -->
<g id="node6" class="node">
<title>income_cat</title>
<polygon fill="white" stroke="#475569" points="5.25,-154.5 5.25,-190.5 492.5,-190.5 492.5,-154.5 5.25,-154.5"/>
<text xml:space="preserve" text-anchor="middle" x="83.38" y="-170.12" font-family="Sans" font-size="10.00">incomeCat1 : IncomeCategory</text>
<polyline fill="none" stroke="#475569" points="161.5,-154.5 161.5,-190.5"/>
<text xml:space="preserve" text-anchor="middle" x="327" y="-170.5" font-family="Sans" font-size="10.00">id = 1\lcategoryCode = IC001\lcategoryName = 经费拨入\lstatus = 1\l</text>
</g>
<!-- income_cat&#45;&gt;income_rec -->
<g id="edge5" class="edge">
<title>income_cat&#45;&gt;income_rec</title>
<path fill="none" stroke="#475569" d="M489.5,-190.82C489.5,-205.36 489.5,-223.25 489.5,-223.25 489.5,-223.25 538.31,-223.25 603.79,-223.25"/>
<text xml:space="preserve" text-anchor="middle" x="550.25" y="-178" font-family="Sans" font-size="10.00">收入类别</text>
</g>
<!-- expense_cat -->
<g id="node7" class="node">
<title>expense_cat</title>
<polygon fill="white" stroke="#475569" points="0,-454.5 0,-490.5 497.75,-490.5 497.75,-454.5 0,-454.5"/>
<text xml:space="preserve" text-anchor="middle" x="82.62" y="-470.12" font-family="Sans" font-size="10.00">expenseCat2 : ExpenseCategory</text>
<polyline fill="none" stroke="#475569" points="165.25,-454.5 165.25,-490.5"/>
<text xml:space="preserve" text-anchor="middle" x="331.5" y="-470.5" font-family="Sans" font-size="10.00">id = 2\lcategoryCode = EC002\lcategoryName = 活动支出\lstatus = 1\l</text>
</g>
<!-- expense_cat&#45;&gt;expense_rec -->
<g id="edge8" class="edge">
<title>expense_cat&#45;&gt;expense_rec</title>
<path fill="none" stroke="#475569" d="M486.5,-454.27C486.5,-438.66 486.5,-418.67 486.5,-418.67 486.5,-418.67 536.07,-418.67 602.44,-418.67"/>
<text xml:space="preserve" text-anchor="middle" x="550.25" y="-478" font-family="Sans" font-size="10.00">支出类别</text>
</g>
</g>
</svg>
