<svg xmlns="http://www.w3.org/2000/svg" viewBox="0 0 1700 900">
  <defs>
    <style>
      .title { font: 700 30px sans-serif; fill: #0f172a; }
      .box { fill: #fff; stroke: #475569; stroke-width: 2; rx: 10; }
      .name { font: 700 16px sans-serif; fill: #111827; }
      .text { font: 14px sans-serif; fill: #334155; }
      .line { stroke: #334155; stroke-width: 2; fill: none; marker-end: url(#arrow); }
      .ret { stroke: #64748b; stroke-width: 2; fill: none; stroke-dasharray: 8 6; marker-end: url(#arrow); }
    </style>
    <marker id="arrow" markerWidth="10" markerHeight="10" refX="8" refY="5" orient="auto" markerUnits="strokeWidth">
      <path d="M0,0 L10,5 L0,10 z" fill="#334155"/>
    </marker>
  </defs>

  <rect width="1700" height="900" fill="#ffffff"/>
  <text x="850" y="54" text-anchor="middle" class="title">新增收入记录通信图</text>

  <rect x="70" y="180" width="160" height="70" class="box" fill="#fff7ed"/>
  <text x="150" y="210" text-anchor="middle" class="name">actor</text>
  <text x="150" y="232" text-anchor="middle" class="text">财务员</text>

  <rect x="300" y="160" width="190" height="80" class="box" fill="#dbeafe"/>
  <text x="395" y="192" text-anchor="middle" class="name">boundary</text>
  <text x="395" y="216" text-anchor="middle" class="text">IncomePage</text>

  <rect x="560" y="160" width="170" height="80" class="box" fill="#bfdbfe"/>
  <text x="645" y="192" text-anchor="middle" class="name">boundary</text>
  <text x="645" y="216" text-anchor="middle" class="text">finance.js</text>

  <rect x="800" y="160" width="200" height="80" class="box" fill="#d1fae5"/>
  <text x="900" y="192" text-anchor="middle" class="name">control</text>
  <text x="900" y="216" text-anchor="middle" class="text">IncomeController</text>

  <rect x="1070" y="160" width="200" height="80" class="box" fill="#dcfce7"/>
  <text x="1170" y="192" text-anchor="middle" class="name">control</text>
  <text x="1170" y="216" text-anchor="middle" class="text">RecordService</text>

  <rect x="1020" y="360" width="170" height="80" class="box" fill="#fef3c7"/>
  <text x="1105" y="392" text-anchor="middle" class="name">service</text>
  <text x="1105" y="416" text-anchor="middle" class="text">DepartmentService</text>

  <rect x="1210" y="360" width="170" height="80" class="box" fill="#fef3c7"/>
  <text x="1295" y="392" text-anchor="middle" class="name">service</text>
  <text x="1295" y="416" text-anchor="middle" class="text">AccountService</text>

  <rect x="1400" y="360" width="190" height="80" class="box" fill="#fef3c7"/>
  <text x="1495" y="392" text-anchor="middle" class="name">service</text>
  <text x="1495" y="416" text-anchor="middle" class="text">CategoryService</text>

  <rect x="1210" y="580" width="200" height="80" class="box" fill="#fde68a"/>
  <text x="1310" y="612" text-anchor="middle" class="name">entity</text>
  <text x="1310" y="636" text-anchor="middle" class="text">IncomeRecordMapper</text>

  <rect x="1480" y="580" width="120" height="80" class="box" fill="#f1f5f9"/>
  <text x="1540" y="612" text-anchor="middle" class="name">database</text>
  <text x="1540" y="636" text-anchor="middle" class="text">MySQL</text>

  <path class="line" d="M230 215 H300"/>
  <text x="236" y="202" class="text">1</text>
  <path class="line" d="M490 200 H560"/>
  <text x="520" y="187" class="text">2</text>
  <path class="line" d="M730 200 H800"/>
  <text x="762" y="187" class="text">3</text>
  <path class="line" d="M1000 200 H1070"/>
  <text x="1030" y="187" class="text">4</text>

  <path class="line" d="M1170 240 V360 H1105"/>
  <text x="1148" y="306" class="text">5</text>
  <path class="line" d="M1170 240 V360 H1295"/>
  <text x="1240" y="306" class="text">6</text>
  <path class="line" d="M1170 240 V360 H1495"/>
  <text x="1400" y="306" class="text">7</text>

  <path class="line" d="M1170 240 V620 H1210"/>
  <text x="1182" y="480" class="text">8</text>
  <path class="line" d="M1410 620 H1480"/>
  <text x="1438" y="607" class="text">9</text>

  <path class="ret" d="M1480 650 H1410"/>
  <text x="1438" y="672" class="text">10</text>
  <path class="ret" d="M1210 650 H1170 V240"/>
  <text x="1182" y="570" class="text">11</text>
  <path class="ret" d="M1070 220 H1000"/>
  <text x="1030" y="242" class="text">12</text>
  <path class="ret" d="M800 220 H730"/>
  <text x="762" y="242" class="text">13</text>
  <path class="ret" d="M560 220 H490"/>
  <text x="520" y="242" class="text">14</text>
  <path class="ret" d="M300 235 H230"/>
  <text x="236" y="257" class="text">15</text>

  <text x="150" y="292" class="text">填写并提交表单</text>
  <text x="340" y="132" class="text">createIncome(payload)</text>
  <text x="610" y="132" class="text">POST /incomes</text>
  <text x="842" y="132" class="text">createIncome(request)</text>
  <text x="995" y="462" class="text">校验主数据有效性</text>
  <text x="1216" y="704" class="text">insert(record)</text>
  <text x="1466" y="560" class="text">写入 income_record</text>
</svg>
