<?xml version="1.0" encoding="UTF-8" standalone="no"?>
<!DOCTYPE svg PUBLIC "-//W3C//DTD SVG 1.1//EN"
 "http://www.w3.org/Graphics/SVG/1.1/DTD/svg11.dtd">
<!-- Generated by graphviz version 14.1.5 (0)
 -->
<!-- Title: package_diagram Pages: 1 -->
<svg width="1077pt" height="851pt"
 viewBox="0.00 0.00 1077.00 851.00" xmlns="http://www.w3.org/2000/svg" xmlns:xlink="http://www.w3.org/1999/xlink">
<g id="graph0" class="graph" transform="scale(1 1) rotate(0) translate(4 847.25)">
<title>package_diagram</title>
<polygon fill="white" stroke="none" points="-4,4 -4,-847.25 1073.25,-847.25 1073.25,4 -4,4"/>
<text xml:space="preserve" text-anchor="middle" x="534.62" y="-818.35" font-family="Times,serif" font-size="22.00">财务管理系统包图</text>
<g id="clust1" class="cluster">
<title>cluster_backend</title>
<path fill="none" stroke="#93c5fd" d="M341.5,-351C341.5,-351 1049.25,-351 1049.25,-351 1055.25,-351 1061.25,-357 1061.25,-363 1061.25,-363 1061.25,-783 1061.25,-783 1061.25,-789 1055.25,-795 1049.25,-795 1049.25,-795 341.5,-795 341.5,-795 335.5,-795 329.5,-789 329.5,-783 329.5,-783 329.5,-363 329.5,-363 329.5,-357 335.5,-351 341.5,-351"/>
<text xml:space="preserve" text-anchor="middle" x="695.38" y="-770.1" font-family="Times,serif" font-size="22.00">backend / com.classdesign.finance</text>
</g>
<g id="clust2" class="cluster">
<title>cluster_frontend</title>
<path fill="none" stroke="#86efac" d="M20,-8C20,-8 400.75,-8 400.75,-8 406.75,-8 412.75,-14 412.75,-20 412.75,-20 412.75,-331 412.75,-331 412.75,-337 406.75,-343 400.75,-343 400.75,-343 20,-343 20,-343 14,-343 8,-337 8,-331 8,-331 8,-20 8,-20 8,-14 14,-8 20,-8"/>
<text xml:space="preserve" text-anchor="middle" x="210.38" y="-318.1" font-family="Times,serif" font-size="22.00">frontend / src</text>
</g>
<!-- config_pkg -->
<g id="node1" class="node">
<title>config_pkg</title>
<polygon fill="white" stroke="#475569" points="391.5,-601 388.5,-605 367.5,-605 364.5,-601 337.5,-601 337.5,-565 391.5,-565 391.5,-601"/>
<text xml:space="preserve" text-anchor="middle" x="364.5" y="-580.42" font-family="Sans" font-size="11.00">config</text>
</g>
<!-- controller_pkg -->
<g id="node2" class="node">
<title>controller_pkg</title>
<polygon fill="white" stroke="#475569" points="603,-601 600,-605 579,-605 576,-601 536.75,-601 536.75,-565 603,-565 603,-601"/>
<text xml:space="preserve" text-anchor="middle" x="569.88" y="-580.42" font-family="Sans" font-size="11.00">controller</text>
</g>
<!-- config_pkg&#45;&gt;controller_pkg -->
<g id="edge16" class="edge">
<title>config_pkg&#45;&gt;controller_pkg</title>
<path fill="none" stroke="#475569" stroke-dasharray="5,2" d="M391.77,-583C391.77,-583 524.84,-583 524.84,-583"/>
<polygon fill="#475569" stroke="#475569" points="524.84,-586.5 534.84,-583 524.84,-579.5 524.84,-586.5"/>
<text xml:space="preserve" text-anchor="middle" x="470.75" y="-588.58" font-family="Sans" font-size="10.00">拦截/异常/跨域</text>
</g>
<!-- service_pkg -->
<g id="node3" class="node">
<title>service_pkg</title>
<polygon fill="white" stroke="#475569" points="742.5,-558 739.5,-562 718.5,-562 715.5,-558 688.5,-558 688.5,-522 742.5,-522 742.5,-558"/>
<text xml:space="preserve" text-anchor="middle" x="715.5" y="-537.42" font-family="Sans" font-size="11.00">service</text>
</g>
<!-- controller_pkg&#45;&gt;service_pkg -->
<g id="edge8" class="edge">
<title>controller_pkg&#45;&gt;service_pkg</title>
<path fill="none" stroke="#475569" d="M603.24,-574C643.61,-574 706.25,-574 706.25,-574 706.25,-574 706.25,-569.71 706.25,-569.71"/>
<polygon fill="#475569" stroke="#475569" points="709.75,-569.71 706.25,-559.71 702.75,-569.71 709.75,-569.71"/>
<text xml:space="preserve" text-anchor="middle" x="645.75" y="-553.5" font-family="Sans" font-size="10.00">调用</text>
</g>
<!-- dto_pkg -->
<g id="node6" class="node">
<title>dto_pkg</title>
<polygon fill="white" stroke="#475569" points="742.5,-641 739.5,-645 718.5,-645 715.5,-641 688.5,-641 688.5,-605 742.5,-605 742.5,-641"/>
<text xml:space="preserve" text-anchor="middle" x="715.5" y="-620.42" font-family="Sans" font-size="11.00">dto</text>
</g>
<!-- controller_pkg&#45;&gt;dto_pkg -->
<g id="edge7" class="edge">
<title>controller_pkg&#45;&gt;dto_pkg</title>
<path fill="none" stroke="#475569" d="M603.37,-592C648.78,-592 724.25,-592 724.25,-592 724.25,-592 724.25,-593.26 724.25,-593.26"/>
<polygon fill="#475569" stroke="#475569" points="720.75,-593.1 724.25,-603.1 727.75,-593.1 720.75,-593.1"/>
<text xml:space="preserve" text-anchor="middle" x="645.75" y="-624.5" font-family="Sans" font-size="10.00">接收</text>
</g>
<!-- common_pkg -->
<g id="node8" class="node">
<title>common_pkg</title>
<polygon fill="white" stroke="#475569" points="913.75,-753 910.75,-757 889.75,-757 886.75,-753 851.25,-753 851.25,-717 913.75,-717 913.75,-753"/>
<text xml:space="preserve" text-anchor="middle" x="882.5" y="-732.42" font-family="Sans" font-size="11.00">common</text>
</g>
<!-- controller_pkg&#45;&gt;common_pkg -->
<g id="edge9" class="edge">
<title>controller_pkg&#45;&gt;common_pkg</title>
<path fill="none" stroke="#475569" d="M603.21,-583C682.02,-583 873.25,-583 873.25,-583 873.25,-583 873.25,-705.15 873.25,-705.15"/>
<polygon fill="#475569" stroke="#475569" points="869.75,-705.15 873.25,-715.15 876.75,-705.15 869.75,-705.15"/>
<text xml:space="preserve" text-anchor="middle" x="715.5" y="-740.5" font-family="Sans" font-size="10.00">统一响应</text>
</g>
<!-- mapper_pkg -->
<g id="node4" class="node">
<title>mapper_pkg</title>
<polygon fill="white" stroke="#475569" points="910.75,-561 907.75,-565 886.75,-565 883.75,-561 854.25,-561 854.25,-525 910.75,-525 910.75,-561"/>
<text xml:space="preserve" text-anchor="middle" x="882.5" y="-540.42" font-family="Sans" font-size="11.00">mapper</text>
</g>
<!-- service_pkg&#45;&gt;mapper_pkg -->
<g id="edge10" class="edge">
<title>service_pkg&#45;&gt;mapper_pkg</title>
<path fill="none" stroke="#475569" d="M742.7,-549.75C742.7,-549.75 842.4,-549.75 842.4,-549.75"/>
<polygon fill="#475569" stroke="#475569" points="842.4,-553.25 852.4,-549.75 842.4,-546.25 842.4,-553.25"/>
<text xml:space="preserve" text-anchor="middle" x="796.88" y="-548.5" font-family="Sans" font-size="10.00">访问</text>
</g>
<!-- entity_pkg -->
<g id="node5" class="node">
<title>entity_pkg</title>
<polygon fill="white" stroke="#475569" points="1053.25,-645 1050.25,-649 1029.25,-649 1026.25,-645 999.25,-645 999.25,-609 1053.25,-609 1053.25,-645"/>
<text xml:space="preserve" text-anchor="middle" x="1026.25" y="-624.42" font-family="Sans" font-size="11.00">entity</text>
</g>
<!-- service_pkg&#45;&gt;entity_pkg -->
<g id="edge11" class="edge">
<title>service_pkg&#45;&gt;entity_pkg</title>
<path fill="none" stroke="#475569" d="M742.76,-533.25C772.29,-533.25 815.25,-533.25 815.25,-533.25 815.25,-533.25 815.25,-630.33 815.25,-630.33 815.25,-630.33 987.58,-630.33 987.58,-630.33"/>
<polygon fill="#475569" stroke="#475569" points="987.58,-633.83 997.58,-630.33 987.58,-626.83 987.58,-633.83"/>
<text xml:space="preserve" text-anchor="middle" x="882.5" y="-660.5" font-family="Sans" font-size="10.00">操作</text>
</g>
<!-- vo_pkg -->
<g id="node7" class="node">
<title>vo_pkg</title>
<polygon fill="white" stroke="#475569" points="909.5,-395 906.5,-399 885.5,-399 882.5,-395 855.5,-395 855.5,-359 909.5,-359 909.5,-395"/>
<text xml:space="preserve" text-anchor="middle" x="882.5" y="-374.43" font-family="Sans" font-size="11.00">vo</text>
</g>
<!-- service_pkg&#45;&gt;vo_pkg -->
<g id="edge12" class="edge">
<title>service_pkg&#45;&gt;vo_pkg</title>
<path fill="none" stroke="#475569" d="M706.25,-521.62C706.25,-478.99 706.25,-377 706.25,-377 706.25,-377 843.83,-377 843.83,-377"/>
<polygon fill="#475569" stroke="#475569" points="843.83,-380.5 853.83,-377 843.83,-373.5 843.83,-380.5"/>
<text xml:space="preserve" text-anchor="middle" x="796.88" y="-412.5" font-family="Sans" font-size="10.00">返回</text>
</g>
<!-- service_pkg&#45;&gt;common_pkg -->
<g id="edge13" class="edge">
<title>service_pkg&#45;&gt;common_pkg</title>
<path fill="none" stroke="#475569" d="M742.84,-541.5C759.75,-541.5 778.25,-541.5 778.25,-541.5 778.25,-541.5 778.25,-735 778.25,-735 778.25,-735 839.43,-735 839.43,-735"/>
<polygon fill="#475569" stroke="#475569" points="839.43,-738.5 849.43,-735 839.43,-731.5 839.43,-738.5"/>
<text xml:space="preserve" text-anchor="middle" x="796.88" y="-716.5" font-family="Sans" font-size="10.00">业务异常</text>
</g>
<!-- enums_pkg -->
<g id="node9" class="node">
<title>enums_pkg</title>
<polygon fill="white" stroke="#475569" points="909.5,-478 906.5,-482 885.5,-482 882.5,-478 855.5,-478 855.5,-442 909.5,-442 909.5,-478"/>
<text xml:space="preserve" text-anchor="middle" x="882.5" y="-457.43" font-family="Sans" font-size="11.00">enums</text>
</g>
<!-- service_pkg&#45;&gt;enums_pkg -->
<g id="edge14" class="edge">
<title>service_pkg&#45;&gt;enums_pkg</title>
<path fill="none" stroke="#475569" stroke-dasharray="5,2" d="M724.25,-521.85C724.25,-498.24 724.25,-460 724.25,-460 724.25,-460 843.78,-460 843.78,-460"/>
<polygon fill="#475569" stroke="#475569" points="843.78,-463.5 853.78,-460 843.78,-456.5 843.78,-463.5"/>
<text xml:space="preserve" text-anchor="middle" x="796.88" y="-480.58" font-family="Sans" font-size="10.00">状态/角色</text>
</g>
<!-- mapper_pkg&#45;&gt;entity_pkg -->
<g id="edge15" class="edge">
<title>mapper_pkg&#45;&gt;entity_pkg</title>
<path fill="none" stroke="#475569" d="M892.25,-561.17C892.25,-583.84 892.25,-619.67 892.25,-619.67 892.25,-619.67 987.3,-619.67 987.3,-619.67"/>
<polygon fill="#475569" stroke="#475569" points="987.3,-623.17 997.3,-619.67 987.3,-616.17 987.3,-623.17"/>
<text xml:space="preserve" text-anchor="middle" x="956.5" y="-576.5" font-family="Sans" font-size="10.00">映射</text>
</g>
<!-- layout_pkg -->
<g id="node10" class="node">
<title>layout_pkg</title>
<polygon fill="white" stroke="#475569" points="219.25,-85 216.25,-89 195.25,-89 192.25,-85 165.25,-85 165.25,-49 219.25,-49 219.25,-85"/>
<text xml:space="preserve" text-anchor="middle" x="192.25" y="-64.42" font-family="Sans" font-size="11.00">layout</text>
</g>
<!-- styles_pkg -->
<g id="node16" class="node">
<title>styles_pkg</title>
<polygon fill="white" stroke="#475569" points="391.5,-52 388.5,-56 367.5,-56 364.5,-52 337.5,-52 337.5,-16 391.5,-16 391.5,-52"/>
<text xml:space="preserve" text-anchor="middle" x="364.5" y="-31.43" font-family="Sans" font-size="11.00">styles</text>
</g>
<!-- layout_pkg&#45;&gt;styles_pkg -->
<g id="edge6" class="edge">
<title>layout_pkg&#45;&gt;styles_pkg</title>
<path fill="none" stroke="#475569" d="M219.5,-68.5C268,-68.5 364.25,-68.5 364.25,-68.5 364.25,-68.5 364.25,-63.98 364.25,-63.98"/>
<polygon fill="#475569" stroke="#475569" points="367.75,-63.98 364.25,-53.98 360.75,-63.98 367.75,-63.98"/>
<text xml:space="preserve" text-anchor="middle" x="271.75" y="-69.5" font-family="Sans" font-size="10.00">应用样式</text>
</g>
<!-- router_pkg -->
<g id="node11" class="node">
<title>router_pkg</title>
<polygon fill="white" stroke="#475569" points="70,-132 67,-136 46,-136 43,-132 16,-132 16,-96 70,-96 70,-132"/>
<text xml:space="preserve" text-anchor="middle" x="43" y="-111.42" font-family="Sans" font-size="11.00">router</text>
</g>
<!-- router_pkg&#45;&gt;layout_pkg -->
<g id="edge1" class="edge">
<title>router_pkg&#45;&gt;layout_pkg</title>
<path fill="none" stroke="#475569" d="M43.25,-95.69C43.25,-82.5 43.25,-67 43.25,-67 43.25,-67 153.41,-67 153.41,-67"/>
<polygon fill="#475569" stroke="#475569" points="153.41,-70.5 163.41,-67 153.41,-63.5 153.41,-70.5"/>
<text xml:space="preserve" text-anchor="middle" x="117.62" y="-76.5" font-family="Sans" font-size="10.00">装配</text>
</g>
<!-- pages_pkg -->
<g id="node12" class="node">
<title>pages_pkg</title>
<polygon fill="white" stroke="#475569" points="219.25,-195 216.25,-199 195.25,-199 192.25,-195 165.25,-195 165.25,-159 219.25,-159 219.25,-195"/>
<text xml:space="preserve" text-anchor="middle" x="192.25" y="-174.43" font-family="Sans" font-size="11.00">pages</text>
</g>
<!-- router_pkg&#45;&gt;pages_pkg -->
<g id="edge2" class="edge">
<title>router_pkg&#45;&gt;pages_pkg</title>
<path fill="none" stroke="#475569" d="M70.37,-115.5C113.46,-115.5 192.25,-115.5 192.25,-115.5 192.25,-115.5 192.25,-147.03 192.25,-147.03"/>
<polygon fill="#475569" stroke="#475569" points="188.75,-147.03 192.25,-157.03 195.75,-147.03 188.75,-147.03"/>
<text xml:space="preserve" text-anchor="middle" x="117.62" y="-163.5" font-family="Sans" font-size="10.00">路由到</text>
</g>
<!-- api_pkg -->
<g id="node13" class="node">
<title>api_pkg</title>
<polygon fill="white" stroke="#475569" points="391.5,-135 388.5,-139 367.5,-139 364.5,-135 337.5,-135 337.5,-99 391.5,-99 391.5,-135"/>
<text xml:space="preserve" text-anchor="middle" x="364.5" y="-114.42" font-family="Sans" font-size="11.00">api</text>
</g>
<!-- pages_pkg&#45;&gt;api_pkg -->
<g id="edge3" class="edge">
<title>pages_pkg&#45;&gt;api_pkg</title>
<path fill="none" stroke="#475569" d="M219.5,-170.5C268,-170.5 364.25,-170.5 364.25,-170.5 364.25,-170.5 364.25,-146.93 364.25,-146.93"/>
<polygon fill="#475569" stroke="#475569" points="367.75,-146.93 364.25,-136.93 360.75,-146.93 367.75,-146.93"/>
<text xml:space="preserve" text-anchor="middle" x="271.75" y="-137.5" font-family="Sans" font-size="10.00">调用</text>
</g>
<!-- components_pkg -->
<g id="node14" class="node">
<title>components_pkg</title>
<polygon fill="white" stroke="#475569" points="404.75,-218 401.75,-222 380.75,-222 377.75,-218 324.25,-218 324.25,-182 404.75,-182 404.75,-218"/>
<text xml:space="preserve" text-anchor="middle" x="364.5" y="-197.43" font-family="Sans" font-size="11.00">components</text>
</g>
<!-- pages_pkg&#45;&gt;components_pkg -->
<g id="edge4" class="edge">
<title>pages_pkg&#45;&gt;components_pkg</title>
<path fill="none" stroke="#475569" d="M219.54,-188.5C219.54,-188.5 312.35,-188.5 312.35,-188.5"/>
<polygon fill="#475569" stroke="#475569" points="312.35,-192 322.35,-188.5 312.35,-185 312.35,-192"/>
<text xml:space="preserve" text-anchor="middle" x="271.75" y="-204.5" font-family="Sans" font-size="10.00">复用</text>
</g>
<!-- utils_pkg -->
<g id="node15" class="node">
<title>utils_pkg</title>
<polygon fill="white" stroke="#475569" points="391.5,-301 388.5,-305 367.5,-305 364.5,-301 337.5,-301 337.5,-265 391.5,-265 391.5,-301"/>
<text xml:space="preserve" text-anchor="middle" x="364.5" y="-280.43" font-family="Sans" font-size="11.00">utils</text>
</g>
<!-- pages_pkg&#45;&gt;utils_pkg -->
<g id="edge5" class="edge">
<title>pages_pkg&#45;&gt;utils_pkg</title>
<path fill="none" stroke="#475569" d="M192.25,-195.46C192.25,-225.83 192.25,-283 192.25,-283 192.25,-283 325.69,-283 325.69,-283"/>
<polygon fill="#475569" stroke="#475569" points="325.69,-286.5 335.69,-283 325.69,-279.5 325.69,-286.5"/>
<text xml:space="preserve" text-anchor="middle" x="271.75" y="-279.5" font-family="Sans" font-size="10.00">认证状态</text>
</g>
<!-- api_pkg&#45;&gt;controller_pkg -->
<g id="edge17" class="edge">
<title>api_pkg&#45;&gt;controller_pkg</title>
<path fill="none" stroke="#475569" stroke-dasharray="5,2" d="M391.82,-117C447.79,-117 570.25,-117 570.25,-117 570.25,-117 570.25,-553.22 570.25,-553.22"/>
<polygon fill="#475569" stroke="#475569" points="566.75,-553.22 570.25,-563.22 573.75,-553.22 566.75,-553.22"/>
<text xml:space="preserve" text-anchor="middle" x="470.75" y="-300.5" font-family="Sans" font-size="10.00">HTTP 接口契约</text>
</g>
</g>
</svg>
