<?xml version="1.0" encoding="UTF-8" standalone="no"?>
<!DOCTYPE svg PUBLIC "-//W3C//DTD SVG 1.1//EN"
 "http://www.w3.org/Graphics/SVG/1.1/DTD/svg11.dtd">
<!-- Generated by graphviz version 14.1.5 (0)
 -->
<!-- Title: dfd Pages: 1 -->
<svg width="1163pt" height="1073pt"
 viewBox="0.00 0.00 1163.00 1073.00" xmlns="http://www.w3.org/2000/svg" xmlns:xlink="http://www.w3.org/1999/xlink">
<g id="graph0" class="graph" transform="scale(1 1) rotate(0) translate(4 1069.05)">
<title>dfd</title>
<polygon fill="white" stroke="none" points="-4,4 -4,-1069.05 1159.2,-1069.05 1159.2,4 -4,4"/>
<text xml:space="preserve" text-anchor="middle" x="577.6" y="-1040.15" font-family="Times,serif" font-size="22.00">财务管理系统数据流图（Level 1）</text>
<!-- admin -->
<g id="node1" class="node">
<title>admin</title>
<polygon fill="#fff7ed" stroke="#475569" points="54,-422.8 0,-422.8 0,-386.8 54,-386.8 54,-422.8"/>
<text xml:space="preserve" text-anchor="middle" x="27" y="-402.98" font-family="Sans" font-size="11.00">管理员</text>
</g>
<!-- p1 -->
<g id="node3" class="node">
<title>p1</title>
<ellipse fill="#d1fae5" stroke="#475569" cx="259.05" cy="-411.8" rx="46.8" ry="46.8"/>
<text xml:space="preserve" text-anchor="middle" x="259.05" y="-417.85" font-family="Sans" font-size="11.00">1.0</text>
<text xml:space="preserve" text-anchor="middle" x="259.05" y="-402.1" font-family="Sans" font-size="11.00">登录与权限</text>
</g>
<!-- admin&#45;&gt;p1 -->
<g id="edge1" class="edge">
<title>admin&#45;&gt;p1</title>
<path fill="none" stroke="#475569" d="M54.07,-398.8C54.07,-398.8 202.34,-398.8 202.34,-398.8"/>
<polygon fill="#475569" stroke="#475569" points="202.34,-402.3 212.34,-398.8 202.34,-395.3 202.34,-402.3"/>
<text xml:space="preserve" text-anchor="middle" x="133.12" y="-445.38" font-family="Sans" font-size="10.00">用户名 / 密码</text>
</g>
<!-- p2 -->
<g id="node4" class="node">
<title>p2</title>
<ellipse fill="#dcfce7" stroke="#475569" cx="259.05" cy="-46.8" rx="46.8" ry="46.8"/>
<text xml:space="preserve" text-anchor="middle" x="259.05" y="-52.85" font-family="Sans" font-size="11.00">2.0</text>
<text xml:space="preserve" text-anchor="middle" x="259.05" y="-37.1" font-family="Sans" font-size="11.00">基础信息管理</text>
</g>
<!-- admin&#45;&gt;p2 -->
<g id="edge6" class="edge">
<title>admin&#45;&gt;p2</title>
<path fill="none" stroke="#475569" d="M18.2,-386.53C18.2,-311.52 18.2,-31.2 18.2,-31.2 18.2,-31.2 203.08,-31.2 203.08,-31.2"/>
<polygon fill="#475569" stroke="#475569" points="203.08,-34.7 213.08,-31.2 203.08,-27.7 203.08,-34.7"/>
<text xml:space="preserve" text-anchor="middle" x="133.12" y="-127.3" font-family="Sans" font-size="10.00">主数据维护请求</text>
</g>
<!-- p3 -->
<g id="node5" class="node">
<title>p3</title>
<ellipse fill="#dcfce7" stroke="#475569" cx="805.9" cy="-409.8" rx="46.8" ry="46.8"/>
<text xml:space="preserve" text-anchor="middle" x="805.9" y="-415.85" font-family="Sans" font-size="11.00">3.0</text>
<text xml:space="preserve" text-anchor="middle" x="805.9" y="-400.1" font-family="Sans" font-size="11.00">收支管理</text>
</g>
<!-- admin&#45;&gt;p3 -->
<g id="edge9" class="edge">
<title>admin&#45;&gt;p3</title>
<path fill="none" stroke="#475569" d="M46.2,-423.25C46.2,-440 46.2,-462.11 46.2,-462.11 46.2,-462.11 778.2,-462.11 778.2,-462.11 778.2,-462.11 778.2,-459.6 778.2,-459.6"/>
<polygon fill="#475569" stroke="#475569" points="781.7,-459.6 778.2,-449.6 774.7,-459.6 781.7,-459.6"/>
<text xml:space="preserve" text-anchor="middle" x="394.73" y="-175.38" font-family="Sans" font-size="10.00">收入 / 支出录入</text>
</g>
<!-- p4 -->
<g id="node6" class="node">
<title>p4</title>
<ellipse fill="#cffafe" stroke="#475569" cx="805.9" cy="-753.8" rx="46.8" ry="46.8"/>
<text xml:space="preserve" text-anchor="middle" x="805.9" y="-759.85" font-family="Sans" font-size="11.00">4.0</text>
<text xml:space="preserve" text-anchor="middle" x="805.9" y="-744.1" font-family="Sans" font-size="11.00">报表统计</text>
</g>
<!-- admin&#45;&gt;p4 -->
<g id="edge15" class="edge">
<title>admin&#45;&gt;p4</title>
<path fill="none" stroke="#475569" d="M8.2,-423.26C8.2,-498.38 8.2,-777.06 8.2,-777.06 8.2,-777.06 753.46,-777.06 753.46,-777.06"/>
<polygon fill="#475569" stroke="#475569" points="753.46,-780.56 763.46,-777.06 753.46,-773.56 753.46,-780.56"/>
<text xml:space="preserve" text-anchor="middle" x="394.73" y="-913.3" font-family="Sans" font-size="10.00">统计条件</text>
</g>
<!-- p5 -->
<g id="node7" class="node">
<title>p5</title>
<ellipse fill="#fef3c7" stroke="#475569" cx="259.05" cy="-595.8" rx="46.8" ry="46.8"/>
<text xml:space="preserve" text-anchor="middle" x="259.05" y="-601.85" font-family="Sans" font-size="11.00">5.0</text>
<text xml:space="preserve" text-anchor="middle" x="259.05" y="-586.1" font-family="Sans" font-size="11.00">备份与恢复</text>
</g>
<!-- admin&#45;&gt;p5 -->
<g id="edge21" class="edge">
<title>admin&#45;&gt;p5</title>
<path fill="none" stroke="#475569" d="M23.2,-423.13C23.2,-473.7 23.2,-611.4 23.2,-611.4 23.2,-611.4 202.9,-611.4 202.9,-611.4"/>
<polygon fill="#475569" stroke="#475569" points="202.9,-614.9 212.9,-611.4 202.9,-607.9 202.9,-614.9"/>
<text xml:space="preserve" text-anchor="middle" x="133.12" y="-518.38" font-family="Sans" font-size="10.00">创建 / 恢复备份</text>
</g>
<!-- finance -->
<g id="node2" class="node">
<title>finance</title>
<polygon fill="#dbeafe" stroke="#475569" points="569.23,-415.8 515.23,-415.8 515.23,-379.8 569.23,-379.8 569.23,-415.8"/>
<text xml:space="preserve" text-anchor="middle" x="542.23" y="-395.98" font-family="Sans" font-size="11.00">财务员</text>
</g>
<!-- finance&#45;&gt;p1 -->
<g id="edge2" class="edge">
<title>finance&#45;&gt;p1</title>
<path fill="none" stroke="#475569" d="M514.82,-391.8C514.82,-391.8 313.07,-391.8 313.07,-391.8"/>
<polygon fill="#475569" stroke="#475569" points="313.07,-388.3 303.07,-391.8 313.07,-395.3 313.07,-388.3"/>
<text xml:space="preserve" text-anchor="middle" x="394.73" y="-417.38" font-family="Sans" font-size="10.00">用户名 / 密码</text>
</g>
<!-- finance&#45;&gt;p3 -->
<g id="edge10" class="edge">
<title>finance&#45;&gt;p3</title>
<path fill="none" stroke="#475569" d="M569.45,-387C569.45,-387 753.11,-387 753.11,-387"/>
<polygon fill="#475569" stroke="#475569" points="753.11,-390.5 763.11,-387 753.11,-383.5 753.11,-390.5"/>
<text xml:space="preserve" text-anchor="middle" x="679.98" y="-450.38" font-family="Sans" font-size="10.00">收入 / 支出录入</text>
</g>
<!-- finance&#45;&gt;p4 -->
<g id="edge16" class="edge">
<title>finance&#45;&gt;p4</title>
<path fill="none" stroke="#475569" d="M569.66,-408.6C602.52,-408.6 653.2,-408.6 653.2,-408.6 653.2,-408.6 653.2,-722.33 653.2,-722.33 653.2,-722.33 759.35,-722.33 759.35,-722.33"/>
<polygon fill="#475569" stroke="#475569" points="759.35,-725.83 769.35,-722.33 759.35,-718.83 759.35,-725.83"/>
<text xml:space="preserve" text-anchor="middle" x="679.98" y="-754.3" font-family="Sans" font-size="10.00">统计条件</text>
</g>
<!-- p1&#45;&gt;admin -->
<g id="edge3" class="edge">
<title>p1&#45;&gt;admin</title>
<path fill="none" stroke="#475569" d="M211.81,-410.8C211.81,-410.8 65.74,-410.8 65.74,-410.8"/>
<polygon fill="#475569" stroke="#475569" points="65.74,-407.3 55.74,-410.8 65.74,-414.3 65.74,-407.3"/>
<text xml:space="preserve" text-anchor="middle" x="133.12" y="-375.3" font-family="Sans" font-size="10.00">token / 角色 / 菜单</text>
</g>
<!-- p1&#45;&gt;finance -->
<g id="edge4" class="edge">
<title>p1&#45;&gt;finance</title>
<path fill="none" stroke="#475569" d="M305.49,-403.8C305.49,-403.8 503.51,-403.8 503.51,-403.8"/>
<polygon fill="#475569" stroke="#475569" points="503.51,-407.3 513.51,-403.8 503.51,-400.3 503.51,-407.3"/>
<text xml:space="preserve" text-anchor="middle" x="394.73" y="-347.3" font-family="Sans" font-size="10.00">token / 角色 / 菜单</text>
</g>
<!-- d1 -->
<g id="node8" class="node">
<title>d1</title>
<path fill="#f8fafc" stroke="#475569" d="M589.6,-516.86C589.6,-519.69 568.37,-521.99 542.23,-521.99 516.08,-521.99 494.85,-519.69 494.85,-516.86 494.85,-516.86 494.85,-470.74 494.85,-470.74 494.85,-467.91 516.08,-465.61 542.23,-465.61 568.37,-465.61 589.6,-467.91 589.6,-470.74 589.6,-470.74 589.6,-516.86 589.6,-516.86"/>
<path fill="none" stroke="#475569" d="M589.6,-516.86C589.6,-514.03 568.37,-511.74 542.23,-511.74 516.08,-511.74 494.85,-514.03 494.85,-516.86"/>
<text xml:space="preserve" text-anchor="middle" x="542.23" y="-499.85" font-family="Sans" font-size="11.00">D1</text>
<text xml:space="preserve" text-anchor="middle" x="542.23" y="-484.1" font-family="Sans" font-size="11.00">用户与角色数据</text>
</g>
<!-- p1&#45;&gt;d1 -->
<g id="edge5" class="edge">
<title>p1&#45;&gt;d1</title>
<path fill="none" stroke="#475569" d="M299.42,-436.2C369.25,-436.2 505.2,-436.2 505.2,-436.2 505.2,-436.2 505.2,-454.84 505.2,-454.84"/>
<polygon fill="#475569" stroke="#475569" points="501.7,-454.84 505.2,-464.84 508.7,-454.84 501.7,-454.84"/>
<text xml:space="preserve" text-anchor="middle" x="394.73" y="-487.3" font-family="Sans" font-size="10.00">读取账号与角色</text>
</g>
<!-- p2&#45;&gt;admin -->
<g id="edge7" class="edge">
<title>p2&#45;&gt;admin</title>
<path fill="none" stroke="#475569" d="M214.49,-62.4C149.46,-62.4 36.2,-62.4 36.2,-62.4 36.2,-62.4 36.2,-374.88 36.2,-374.88"/>
<polygon fill="#475569" stroke="#475569" points="32.7,-374.88 36.2,-384.88 39.7,-374.88 32.7,-374.88"/>
<text xml:space="preserve" text-anchor="middle" x="133.12" y="-54.3" font-family="Sans" font-size="10.00">维护结果</text>
</g>
<!-- d2 -->
<g id="node9" class="node">
<title>d2</title>
<path fill="#f8fafc" stroke="#475569" d="M1155.2,-570.86C1155.2,-573.69 1129.76,-575.99 1098.45,-575.99 1067.14,-575.99 1041.7,-573.69 1041.7,-570.86 1041.7,-570.86 1041.7,-524.74 1041.7,-524.74 1041.7,-521.91 1067.14,-519.61 1098.45,-519.61 1129.76,-519.61 1155.2,-521.91 1155.2,-524.74 1155.2,-524.74 1155.2,-570.86 1155.2,-570.86"/>
<path fill="none" stroke="#475569" d="M1155.2,-570.86C1155.2,-568.03 1129.76,-565.74 1098.45,-565.74 1067.14,-565.74 1041.7,-568.03 1041.7,-570.86"/>
<text xml:space="preserve" text-anchor="middle" x="1098.45" y="-553.85" font-family="Sans" font-size="11.00">D2</text>
<text xml:space="preserve" text-anchor="middle" x="1098.45" y="-538.1" font-family="Sans" font-size="11.00">部门/账户/类别数据</text>
</g>
<!-- p2&#45;&gt;d2 -->
<g id="edge8" class="edge">
<title>p2&#45;&gt;d2</title>
<path fill="none" stroke="#475569" d="M306.27,-46.8C483.39,-46.8 1098.2,-46.8 1098.2,-46.8 1098.2,-46.8 1098.2,-507.92 1098.2,-507.92"/>
<polygon fill="#475569" stroke="#475569" points="1094.7,-507.92 1098.2,-517.92 1101.7,-507.92 1094.7,-507.92"/>
<text xml:space="preserve" text-anchor="middle" x="679.98" y="-63.38" font-family="Sans" font-size="10.00">新增 / 修改 / 停用</text>
</g>
<!-- p3&#45;&gt;admin -->
<g id="edge11" class="edge">
<title>p3&#45;&gt;admin</title>
<path fill="none" stroke="#475569" d="M796.2,-455.96C796.2,-490.21 796.2,-530.99 796.2,-530.99 796.2,-530.99 38.2,-530.99 38.2,-530.99 38.2,-530.99 38.2,-434.66 38.2,-434.66"/>
<polygon fill="#475569" stroke="#475569" points="41.7,-434.66 38.2,-424.66 34.7,-434.66 41.7,-434.66"/>
<text xml:space="preserve" text-anchor="middle" x="394.73" y="-277.38" font-family="Sans" font-size="10.00">录入结果 / 查询结果</text>
</g>
<!-- p3&#45;&gt;finance -->
<g id="edge12" class="edge">
<title>p3&#45;&gt;finance</title>
<path fill="none" stroke="#475569" d="M761.47,-394.2C761.47,-394.2 580.97,-394.2 580.97,-394.2"/>
<polygon fill="#475569" stroke="#475569" points="580.97,-390.7 570.97,-394.2 580.97,-397.7 580.97,-390.7"/>
<text xml:space="preserve" text-anchor="middle" x="679.98" y="-380.38" font-family="Sans" font-size="10.00">录入结果 / 查询结果</text>
</g>
<!-- p3&#45;&gt;d2 -->
<g id="edge13" class="edge">
<title>p3&#45;&gt;d2</title>
<path fill="none" stroke="#475569" d="M834.2,-447.46C834.2,-485.91 834.2,-540 834.2,-540 834.2,-540 1029.92,-540 1029.92,-540"/>
<polygon fill="#475569" stroke="#475569" points="1029.92,-543.5 1039.92,-540 1029.92,-536.5 1029.92,-543.5"/>
<text xml:space="preserve" text-anchor="middle" x="947.2" y="-468.3" font-family="Sans" font-size="10.00">读取有效部门、账户、类别</text>
</g>
<!-- d3 -->
<g id="node10" class="node">
<title>d3</title>
<path fill="#f8fafc" stroke="#475569" d="M1153.33,-841.86C1153.33,-844.69 1128.73,-846.99 1098.45,-846.99 1068.17,-846.99 1043.58,-844.69 1043.58,-841.86 1043.58,-841.86 1043.58,-795.74 1043.58,-795.74 1043.58,-792.91 1068.17,-790.61 1098.45,-790.61 1128.73,-790.61 1153.33,-792.91 1153.33,-795.74 1153.33,-795.74 1153.33,-841.86 1153.33,-841.86"/>
<path fill="none" stroke="#475569" d="M1153.33,-841.86C1153.33,-839.03 1128.73,-836.74 1098.45,-836.74 1068.17,-836.74 1043.58,-839.03 1043.58,-841.86"/>
<text xml:space="preserve" text-anchor="middle" x="1098.45" y="-824.85" font-family="Sans" font-size="11.00">D3</text>
<text xml:space="preserve" text-anchor="middle" x="1098.45" y="-809.1" font-family="Sans" font-size="11.00">收入/支出记录数据</text>
</g>
<!-- p3&#45;&gt;d3 -->
<g id="edge14" class="edge">
<title>p3&#45;&gt;d3</title>
<path fill="none" stroke="#475569" d="M852.95,-409.8C894.06,-409.8 947.2,-409.8 947.2,-409.8 947.2,-409.8 947.2,-793.94 947.2,-793.94 947.2,-793.94 1031.9,-793.94 1031.9,-793.94"/>
<polygon fill="#475569" stroke="#475569" points="1031.9,-797.44 1041.9,-793.94 1031.9,-790.44 1031.9,-797.44"/>
<text xml:space="preserve" text-anchor="middle" x="947.2" y="-684.38" font-family="Sans" font-size="10.00">写入 / 查询记录</text>
</g>
<!-- p4&#45;&gt;admin -->
<g id="edge17" class="edge">
<title>p4&#45;&gt;admin</title>
<path fill="none" stroke="#475569" d="M758.81,-753.53C588.58,-753.53 15.2,-753.53 15.2,-753.53 15.2,-753.53 15.2,-434.57 15.2,-434.57"/>
<polygon fill="#475569" stroke="#475569" points="18.7,-434.57 15.2,-424.57 11.7,-434.57 18.7,-434.57"/>
<text xml:space="preserve" text-anchor="middle" x="394.73" y="-811.38" font-family="Sans" font-size="10.00">汇总结果 / 趋势数据</text>
</g>
<!-- p4&#45;&gt;finance -->
<g id="edge18" class="edge">
<title>p4&#45;&gt;finance</title>
<path fill="none" stroke="#475569" d="M779.44,-714.66C749.91,-714.66 706.2,-714.66 706.2,-714.66 706.2,-714.66 706.2,-401.4 706.2,-401.4 706.2,-401.4 581.18,-401.4 581.18,-401.4"/>
<polygon fill="#475569" stroke="#475569" points="581.18,-397.9 571.18,-401.4 581.18,-404.9 581.18,-397.9"/>
<text xml:space="preserve" text-anchor="middle" x="679.98" y="-679.38" font-family="Sans" font-size="10.00">汇总结果 / 趋势数据</text>
</g>
<!-- p4&#45;&gt;d2 -->
<g id="edge20" class="edge">
<title>p4&#45;&gt;d2</title>
<path fill="none" stroke="#475569" d="M815.2,-707.7C815.2,-653.04 815.2,-569.24 815.2,-569.24 815.2,-569.24 1029.96,-569.24 1029.96,-569.24"/>
<polygon fill="#475569" stroke="#475569" points="1029.96,-572.74 1039.96,-569.24 1029.96,-565.74 1029.96,-572.74"/>
<text xml:space="preserve" text-anchor="middle" x="947.2" y="-754.38" font-family="Sans" font-size="10.00">读取部门 / 类别名称</text>
</g>
<!-- p4&#45;&gt;d3 -->
<g id="edge19" class="edge">
<title>p4&#45;&gt;d3</title>
<path fill="none" stroke="#475569" d="M824.2,-797.27C824.2,-797.27 1031.63,-797.27 1031.63,-797.27"/>
<polygon fill="#475569" stroke="#475569" points="1031.63,-800.77 1041.63,-797.27 1031.63,-793.77 1031.63,-800.77"/>
<text xml:space="preserve" text-anchor="middle" x="947.2" y="-824.3" font-family="Sans" font-size="10.00">读取有效收支记录</text>
</g>
<!-- p5&#45;&gt;admin -->
<g id="edge22" class="edge">
<title>p5&#45;&gt;admin</title>
<path fill="none" stroke="#475569" d="M214.58,-580.2C148.27,-580.2 31.2,-580.2 31.2,-580.2 31.2,-580.2 31.2,-434.75 31.2,-434.75"/>
<polygon fill="#475569" stroke="#475569" points="34.7,-434.75 31.2,-424.75 27.7,-434.75 34.7,-434.75"/>
<text xml:space="preserve" text-anchor="middle" x="133.12" y="-597.38" font-family="Sans" font-size="10.00">备份文件 / 恢复结果</text>
</g>
<!-- p5&#45;&gt;d1 -->
<g id="edge24" class="edge">
<title>p5&#45;&gt;d1</title>
<path fill="none" stroke="#475569" d="M284.18,-555.75C353.48,-555.75 542.2,-555.75 542.2,-555.75 542.2,-555.75 542.2,-533.75 542.2,-533.75"/>
<polygon fill="#475569" stroke="#475569" points="545.7,-533.75 542.2,-523.75 538.7,-533.75 545.7,-533.75"/>
<text xml:space="preserve" text-anchor="middle" x="394.73" y="-557.3" font-family="Sans" font-size="10.00">读取账号角色数据</text>
</g>
<!-- p5&#45;&gt;d2 -->
<g id="edge25" class="edge">
<title>p5&#45;&gt;d2</title>
<path fill="none" stroke="#475569" d="M292.47,-562.49C292.47,-562.49 1029.76,-562.49 1029.76,-562.49"/>
<polygon fill="#475569" stroke="#475569" points="1029.76,-565.99 1039.76,-562.49 1029.76,-558.99 1029.76,-565.99"/>
<text xml:space="preserve" text-anchor="middle" x="679.98" y="-603.3" font-family="Sans" font-size="10.00">读取主数据</text>
</g>
<!-- p5&#45;&gt;d3 -->
<g id="edge23" class="edge">
<title>p5&#45;&gt;d3</title>
<path fill="none" stroke="#475569" d="M259.2,-643.04C259.2,-709.82 259.2,-823.79 259.2,-823.79 259.2,-823.79 1031.87,-823.79 1031.87,-823.79"/>
<polygon fill="#475569" stroke="#475569" points="1031.87,-827.29 1041.87,-823.79 1031.87,-820.29 1031.87,-827.29"/>
<text xml:space="preserve" text-anchor="middle" x="679.98" y="-1015.3" font-family="Sans" font-size="10.00">读取当前业务数据</text>
</g>
<!-- d4 -->
<g id="node11" class="node">
<title>d4</title>
<path fill="#f8fafc" stroke="#475569" d="M600.85,-724.86C600.85,-727.69 574.57,-729.99 542.23,-729.99 509.88,-729.99 483.6,-727.69 483.6,-724.86 483.6,-724.86 483.6,-678.74 483.6,-678.74 483.6,-675.91 509.88,-673.61 542.23,-673.61 574.57,-673.61 600.85,-675.91 600.85,-678.74 600.85,-678.74 600.85,-724.86 600.85,-724.86"/>
<path fill="none" stroke="#475569" d="M600.85,-724.86C600.85,-722.03 574.57,-719.74 542.23,-719.74 509.88,-719.74 483.6,-722.03 483.6,-724.86"/>
<text xml:space="preserve" text-anchor="middle" x="542.23" y="-707.85" font-family="Sans" font-size="11.00">D4</text>
<text xml:space="preserve" text-anchor="middle" x="542.23" y="-692.1" font-family="Sans" font-size="11.00">备份记录与备份文件</text>
</g>
<!-- p5&#45;&gt;d4 -->
<g id="edge26" class="edge">
<title>p5&#45;&gt;d4</title>
<path fill="none" stroke="#475569" d="M304.25,-609.29C371.27,-609.29 489.2,-609.29 489.2,-609.29 489.2,-609.29 489.2,-663.53 489.2,-663.53"/>
<polygon fill="#475569" stroke="#475569" points="485.7,-663.53 489.2,-673.53 492.7,-663.53 485.7,-663.53"/>
<text xml:space="preserve" text-anchor="middle" x="394.73" y="-684.38" font-family="Sans" font-size="10.00">写入备份记录 / 备份文件</text>
</g>
</g>
</svg>
