<?xml version="1.0" encoding="UTF-8" standalone="no"?>
<!DOCTYPE svg PUBLIC "-//W3C//DTD SVG 1.1//EN"
 "http://www.w3.org/Graphics/SVG/1.1/DTD/svg11.dtd">
<!-- Generated by graphviz version 14.1.5 (0)
 -->
<!-- Title: flowchart Pages: 1 -->
<svg width="391pt" height="908pt"
 viewBox="0.00 0.00 391.00 908.00" xmlns="http://www.w3.org/2000/svg" xmlns:xlink="http://www.w3.org/1999/xlink">
<g id="graph0" class="graph" transform="scale(1 1) rotate(0) translate(4 904.25)">
<title>flowchart</title>
<polygon fill="white" stroke="none" points="-4,4 -4,-904.25 386.84,-904.25 386.84,4 -4,4"/>
<text xml:space="preserve" text-anchor="middle" x="191.42" y="-875.35" font-family="Times,serif" font-size="22.00">报表生成流程图</text>
<!-- start -->
<g id="node1" class="node">
<title>start</title>
<ellipse fill="#111827" stroke="#475569" cx="220.6" cy="-842" rx="27.01" ry="18"/>
<text xml:space="preserve" text-anchor="middle" x="220.6" y="-840.17" font-family="Sans" font-size="11.00" fill="white">开始</text>
</g>
<!-- choose_type -->
<g id="node2" class="node">
<title>choose_type</title>
<polygon fill="#dbeafe" stroke="#475569" points="382.84,-779 124.75,-779 58.35,-743 316.45,-743 382.84,-779"/>
<text xml:space="preserve" text-anchor="middle" x="220.6" y="-759.17" font-family="Sans" font-size="11.00">选择周 / 月 / 年 / 自定义报表</text>
</g>
<!-- start&#45;&gt;choose_type -->
<g id="edge1" class="edge">
<title>start&#45;&gt;choose_type</title>
<path fill="none" stroke="#475569" d="M220.6,-823.62C220.6,-823.62 220.6,-790.82 220.6,-790.82"/>
<polygon fill="#475569" stroke="#475569" points="224.1,-790.82 220.6,-780.82 217.1,-790.82 224.1,-790.82"/>
</g>
<!-- input_filter -->
<g id="node3" class="node">
<title>input_filter</title>
<polygon fill="#dbeafe" stroke="#475569" points="341.19,-698 149.35,-698 100,-662 291.84,-662 341.19,-698"/>
<text xml:space="preserve" text-anchor="middle" x="220.6" y="-678.17" font-family="Sans" font-size="11.00">输入部门与时间条件</text>
</g>
<!-- choose_type&#45;&gt;input_filter -->
<g id="edge2" class="edge">
<title>choose_type&#45;&gt;input_filter</title>
<path fill="none" stroke="#475569" d="M220.6,-742.62C220.6,-742.62 220.6,-709.82 220.6,-709.82"/>
<polygon fill="#475569" stroke="#475569" points="224.1,-709.82 220.6,-699.82 217.1,-709.82 224.1,-709.82"/>
</g>
<!-- call_api -->
<g id="node4" class="node">
<title>call_api</title>
<path fill="#dcfce7" stroke="#475569" d="M200.6,-617C200.6,-617 106.6,-617 106.6,-617 100.6,-617 94.6,-611 94.6,-605 94.6,-605 94.6,-593 94.6,-593 94.6,-587 100.6,-581 106.6,-581 106.6,-581 200.6,-581 200.6,-581 206.6,-581 212.6,-587 212.6,-593 212.6,-593 212.6,-605 212.6,-605 212.6,-611 206.6,-617 200.6,-617"/>
<text xml:space="preserve" text-anchor="middle" x="153.6" y="-597.17" font-family="Sans" font-size="11.00">调用 /reports/* 接口</text>
</g>
<!-- input_filter&#45;&gt;call_api -->
<g id="edge3" class="edge">
<title>input_filter&#45;&gt;call_api</title>
<path fill="none" stroke="#475569" d="M156.3,-661.62C156.3,-661.62 156.3,-628.82 156.3,-628.82"/>
<polygon fill="#475569" stroke="#475569" points="159.8,-628.82 156.3,-618.82 152.8,-628.82 159.8,-628.82"/>
</g>
<!-- valid_period -->
<g id="node5" class="node">
<title>valid_period</title>
<polygon fill="#fef3c7" stroke="#475569" points="112.6,-536 0,-518 112.6,-500 225.19,-518 112.6,-536"/>
<text xml:space="preserve" text-anchor="middle" x="112.6" y="-516.17" font-family="Sans" font-size="11.00">时间条件是否合法 ?</text>
</g>
<!-- call_api&#45;&gt;valid_period -->
<g id="edge4" class="edge">
<title>call_api&#45;&gt;valid_period</title>
<path fill="none" stroke="#475569" d="M153.6,-580.62C153.6,-580.62 153.6,-541.07 153.6,-541.07"/>
<polygon fill="#475569" stroke="#475569" points="157.1,-541.07 153.6,-531.07 150.1,-541.07 157.1,-541.07"/>
</g>
<!-- reject -->
<g id="node6" class="node">
<title>reject</title>
<path fill="#fee2e2" stroke="#475569" d="M295.35,-441C295.35,-441 235.85,-441 235.85,-441 229.85,-441 223.85,-435 223.85,-429 223.85,-429 223.85,-417 223.85,-417 223.85,-411 229.85,-405 235.85,-405 235.85,-405 295.35,-405 295.35,-405 301.35,-405 307.35,-411 307.35,-417 307.35,-417 307.35,-429 307.35,-429 307.35,-435 301.35,-441 295.35,-441"/>
<text xml:space="preserve" text-anchor="middle" x="265.6" y="-421.18" font-family="Sans" font-size="11.00">提示条件错误</text>
</g>
<!-- valid_period&#45;&gt;reject -->
<g id="edge5" class="edge">
<title>valid_period&#45;&gt;reject</title>
<path fill="none" stroke="#475569" d="M208.78,-515.26C208.78,-499.68 208.78,-423 208.78,-423 208.78,-423 211.9,-423 211.9,-423"/>
<polygon fill="#475569" stroke="#475569" points="211.9,-426.5 221.9,-423 211.9,-419.5 211.9,-426.5"/>
<text xml:space="preserve" text-anchor="middle" x="206.47" y="-468.5" font-family="Sans" font-size="10.00">否</text>
</g>
<!-- sum_records -->
<g id="node7" class="node">
<title>sum_records</title>
<path fill="#d1fae5" stroke="#475569" d="M170.47,-441C170.47,-441 54.72,-441 54.72,-441 48.72,-441 42.72,-435 42.72,-429 42.72,-429 42.72,-417 42.72,-417 42.72,-411 48.72,-405 54.72,-405 54.72,-405 170.47,-405 170.47,-405 176.47,-405 182.47,-411 182.47,-417 182.47,-417 182.47,-429 182.47,-429 182.47,-435 176.47,-441 170.47,-441"/>
<text xml:space="preserve" text-anchor="middle" x="112.6" y="-421.18" font-family="Sans" font-size="11.00">汇总有效收入与支出记录</text>
</g>
<!-- valid_period&#45;&gt;sum_records -->
<g id="edge7" class="edge">
<title>valid_period&#45;&gt;sum_records</title>
<path fill="none" stroke="#475569" d="M112.6,-499.68C112.6,-499.68 112.6,-452.77 112.6,-452.77"/>
<polygon fill="#475569" stroke="#475569" points="116.1,-452.77 112.6,-442.77 109.1,-452.77 116.1,-452.77"/>
<text xml:space="preserve" text-anchor="middle" x="117.47" y="-468.5" font-family="Sans" font-size="10.00">是</text>
</g>
<!-- reject&#45;&gt;input_filter -->
<g id="edge6" class="edge">
<title>reject&#45;&gt;input_filter</title>
<path fill="none" stroke="#475569" d="M266.27,-441.48C266.27,-441.48 266.27,-650.17 266.27,-650.17"/>
<polygon fill="#475569" stroke="#475569" points="262.77,-650.17 266.27,-660.17 269.77,-650.17 262.77,-650.17"/>
</g>
<!-- category_stats -->
<g id="node8" class="node">
<title>category_stats</title>
<path fill="#cffafe" stroke="#475569" d="M136.72,-360C136.72,-360 88.47,-360 88.47,-360 82.47,-360 76.47,-354 76.47,-348 76.47,-348 76.47,-336 76.47,-336 76.47,-330 82.47,-324 88.47,-324 88.47,-324 136.72,-324 136.72,-324 142.72,-324 148.72,-330 148.72,-336 148.72,-336 148.72,-348 148.72,-348 148.72,-354 142.72,-360 136.72,-360"/>
<text xml:space="preserve" text-anchor="middle" x="112.6" y="-340.18" font-family="Sans" font-size="11.00">按类别统计</text>
</g>
<!-- sum_records&#45;&gt;category_stats -->
<g id="edge8" class="edge">
<title>sum_records&#45;&gt;category_stats</title>
<path fill="none" stroke="#475569" d="M112.6,-404.62C112.6,-404.62 112.6,-371.82 112.6,-371.82"/>
<polygon fill="#475569" stroke="#475569" points="116.1,-371.82 112.6,-361.82 109.1,-371.82 116.1,-371.82"/>
</g>
<!-- dept_stats -->
<g id="node9" class="node">
<title>dept_stats</title>
<path fill="#cffafe" stroke="#475569" d="M136.72,-279C136.72,-279 88.47,-279 88.47,-279 82.47,-279 76.47,-273 76.47,-267 76.47,-267 76.47,-255 76.47,-255 76.47,-249 82.47,-243 88.47,-243 88.47,-243 136.72,-243 136.72,-243 142.72,-243 148.72,-249 148.72,-255 148.72,-255 148.72,-267 148.72,-267 148.72,-273 142.72,-279 136.72,-279"/>
<text xml:space="preserve" text-anchor="middle" x="112.6" y="-259.18" font-family="Sans" font-size="11.00">按部门统计</text>
</g>
<!-- category_stats&#45;&gt;dept_stats -->
<g id="edge9" class="edge">
<title>category_stats&#45;&gt;dept_stats</title>
<path fill="none" stroke="#475569" d="M112.6,-323.62C112.6,-323.62 112.6,-290.82 112.6,-290.82"/>
<polygon fill="#475569" stroke="#475569" points="116.1,-290.82 112.6,-280.82 109.1,-290.82 116.1,-290.82"/>
</g>
<!-- trend_stats -->
<g id="node10" class="node">
<title>trend_stats</title>
<path fill="#cffafe" stroke="#475569" d="M158.47,-198C158.47,-198 66.72,-198 66.72,-198 60.72,-198 54.72,-192 54.72,-186 54.72,-186 54.72,-174 54.72,-174 54.72,-168 60.72,-162 66.72,-162 66.72,-162 158.47,-162 158.47,-162 164.47,-162 170.47,-168 170.47,-174 170.47,-174 170.47,-186 170.47,-186 170.47,-192 164.47,-198 158.47,-198"/>
<text xml:space="preserve" text-anchor="middle" x="112.6" y="-178.18" font-family="Sans" font-size="11.00">按日 / 按月生成趋势</text>
</g>
<!-- dept_stats&#45;&gt;trend_stats -->
<g id="edge10" class="edge">
<title>dept_stats&#45;&gt;trend_stats</title>
<path fill="none" stroke="#475569" d="M112.6,-242.62C112.6,-242.62 112.6,-209.82 112.6,-209.82"/>
<polygon fill="#475569" stroke="#475569" points="116.1,-209.82 112.6,-199.82 109.1,-209.82 116.1,-209.82"/>
</g>
<!-- render_view -->
<g id="node11" class="node">
<title>render_view</title>
<path fill="#e0f2fe" stroke="#475569" d="M181.72,-117C181.72,-117 43.47,-117 43.47,-117 37.47,-117 31.47,-111 31.47,-105 31.47,-105 31.47,-93 31.47,-93 31.47,-87 37.47,-81 43.47,-81 43.47,-81 181.72,-81 181.72,-81 187.72,-81 193.72,-87 193.72,-93 193.72,-93 193.72,-105 193.72,-105 193.72,-111 187.72,-117 181.72,-117"/>
<text xml:space="preserve" text-anchor="middle" x="112.6" y="-97.17" font-family="Sans" font-size="11.00">前端渲染指标卡、表格和图表</text>
</g>
<!-- trend_stats&#45;&gt;render_view -->
<g id="edge11" class="edge">
<title>trend_stats&#45;&gt;render_view</title>
<path fill="none" stroke="#475569" d="M112.6,-161.62C112.6,-161.62 112.6,-128.82 112.6,-128.82"/>
<polygon fill="#475569" stroke="#475569" points="116.1,-128.82 112.6,-118.82 109.1,-128.82 116.1,-128.82"/>
</g>
<!-- end -->
<g id="node12" class="node">
<title>end</title>
<ellipse fill="#111827" stroke="#475569" cx="112.6" cy="-18" rx="27.01" ry="18"/>
<text xml:space="preserve" text-anchor="middle" x="112.6" y="-16.18" font-family="Sans" font-size="11.00" fill="white">结束</text>
</g>
<!-- render_view&#45;&gt;end -->
<g id="edge12" class="edge">
<title>render_view&#45;&gt;end</title>
<path fill="none" stroke="#475569" d="M112.6,-80.62C112.6,-80.62 112.6,-47.82 112.6,-47.82"/>
<polygon fill="#475569" stroke="#475569" points="116.1,-47.82 112.6,-37.82 109.1,-47.82 116.1,-47.82"/>
</g>
</g>
</svg>
