<?xml version="1.0" encoding="UTF-8" standalone="no"?>
<!DOCTYPE svg PUBLIC "-//W3C//DTD SVG 1.1//EN"
 "http://www.w3.org/Graphics/SVG/1.1/DTD/svg11.dtd">
<!-- Generated by graphviz version 14.1.5 (0)
 -->
<!-- Title: architecture Pages: 1 -->
<svg width="1127pt" height="297pt"
 viewBox="0.00 0.00 1127.00 297.00" xmlns="http://www.w3.org/2000/svg" xmlns:xlink="http://www.w3.org/1999/xlink">
<g id="graph0" class="graph" transform="scale(1 1) rotate(0) translate(4 293.25)">
<title>architecture</title>
<polygon fill="white" stroke="none" points="-4,4 -4,-293.25 1122.75,-293.25 1122.75,4 -4,4"/>
<text xml:space="preserve" text-anchor="middle" x="559.38" y="-264.35" font-family="Times,serif" font-size="22.00">财务管理系统架构图（容器视图）</text>
<g id="clust1" class="cluster">
<title>cluster_system</title>
<path fill="none" stroke="#94a3b8" d="M149.5,-8C149.5,-8 1098.75,-8 1098.75,-8 1104.75,-8 1110.75,-14 1110.75,-20 1110.75,-20 1110.75,-229 1110.75,-229 1110.75,-235 1104.75,-241 1098.75,-241 1098.75,-241 149.5,-241 149.5,-241 143.5,-241 137.5,-235 137.5,-229 137.5,-229 137.5,-20 137.5,-20 137.5,-14 143.5,-8 149.5,-8"/>
<text xml:space="preserve" text-anchor="middle" x="624.12" y="-216.1" font-family="Times,serif" font-size="22.00">学校部门财务管理系统</text>
</g>
<!-- admin -->
<g id="node1" class="node">
<title>admin</title>
<path fill="#fff7ed" stroke="#475569" d="M42,-187C42,-187 12,-187 12,-187 6,-187 0,-181 0,-175 0,-175 0,-163 0,-163 0,-157 6,-151 12,-151 12,-151 42,-151 42,-151 48,-151 54,-157 54,-163 54,-163 54,-175 54,-175 54,-181 48,-187 42,-187"/>
<text xml:space="preserve" text-anchor="middle" x="27" y="-167.18" font-family="Sans" font-size="11.00">管理员</text>
</g>
<!-- browser -->
<g id="node3" class="node">
<title>browser</title>
<path fill="#e0f2fe" stroke="#475569" d="M208.75,-145.25C208.75,-145.25 157.5,-145.25 157.5,-145.25 151.5,-145.25 145.5,-139.25 145.5,-133.25 145.5,-133.25 145.5,-114.75 145.5,-114.75 145.5,-108.75 151.5,-102.75 157.5,-102.75 157.5,-102.75 208.75,-102.75 208.75,-102.75 214.75,-102.75 220.75,-108.75 220.75,-114.75 220.75,-114.75 220.75,-133.25 220.75,-133.25 220.75,-139.25 214.75,-145.25 208.75,-145.25"/>
<text xml:space="preserve" text-anchor="middle" x="183.12" y="-130.8" font-family="Sans" font-size="11.00">Web 浏览器</text>
<text xml:space="preserve" text-anchor="middle" x="183.12" y="-113.55" font-family="Sans" font-size="11.00">系统入口</text>
</g>
<!-- admin&#45;&gt;browser -->
<g id="edge1" class="edge">
<title>admin&#45;&gt;browser</title>
<path fill="none" stroke="#475569" d="M35.75,-150.93C35.75,-141.16 35.75,-131.08 35.75,-131.08 35.75,-131.08 133.66,-131.08 133.66,-131.08"/>
<polygon fill="#475569" stroke="#475569" points="133.66,-134.58 143.66,-131.08 133.66,-127.58 133.66,-134.58"/>
<text xml:space="preserve" text-anchor="middle" x="99.75" y="-174.5" font-family="Sans" font-size="10.00">使用</text>
</g>
<!-- finance -->
<g id="node2" class="node">
<title>finance</title>
<path fill="#dbeafe" stroke="#475569" d="M42,-97C42,-97 12,-97 12,-97 6,-97 0,-91 0,-85 0,-85 0,-73 0,-73 0,-67 6,-61 12,-61 12,-61 42,-61 42,-61 48,-61 54,-67 54,-73 54,-73 54,-85 54,-85 54,-91 48,-97 42,-97"/>
<text xml:space="preserve" text-anchor="middle" x="27" y="-77.17" font-family="Sans" font-size="11.00">财务员</text>
</g>
<!-- finance&#45;&gt;browser -->
<g id="edge2" class="edge">
<title>finance&#45;&gt;browser</title>
<path fill="none" stroke="#475569" d="M17.75,-97.07C17.75,-106.84 17.75,-116.92 17.75,-116.92 17.75,-116.92 133.67,-116.92 133.67,-116.92"/>
<polygon fill="#475569" stroke="#475569" points="133.67,-120.42 143.67,-116.92 133.67,-113.42 133.67,-120.42"/>
<text xml:space="preserve" text-anchor="middle" x="99.75" y="-84.5" font-family="Sans" font-size="10.00">使用</text>
</g>
<!-- spa -->
<g id="node4" class="node">
<title>spa</title>
<path fill="#bfdbfe" stroke="#475569" d="M512.75,-153.12C512.75,-153.12 363.25,-153.12 363.25,-153.12 357.25,-153.12 351.25,-147.12 351.25,-141.12 351.25,-141.12 351.25,-106.88 351.25,-106.88 351.25,-100.88 357.25,-94.88 363.25,-94.88 363.25,-94.88 512.75,-94.88 512.75,-94.88 518.75,-94.88 524.75,-100.88 524.75,-106.88 524.75,-106.88 524.75,-141.12 524.75,-141.12 524.75,-147.12 518.75,-153.12 512.75,-153.12"/>
<text xml:space="preserve" text-anchor="middle" x="438" y="-138.68" font-family="Sans" font-size="11.00">前端容器</text>
<text xml:space="preserve" text-anchor="middle" x="438" y="-121.42" font-family="Sans" font-size="11.00">Vue 3 + Vite + Element Plus</text>
<text xml:space="preserve" text-anchor="middle" x="438" y="-105.67" font-family="Sans" font-size="11.00">负责页面展示、路由和表单交互</text>
</g>
<!-- browser&#45;&gt;spa -->
<g id="edge3" class="edge">
<title>browser&#45;&gt;spa</title>
<path fill="none" stroke="#475569" d="M221.01,-124C221.01,-124 339.26,-124 339.26,-124"/>
<polygon fill="#475569" stroke="#475569" points="339.26,-127.5 349.26,-124 339.26,-120.5 339.26,-127.5"/>
<text xml:space="preserve" text-anchor="middle" x="286" y="-129.5" font-family="Sans" font-size="10.00">加载前端资源</text>
</g>
<!-- backend -->
<g id="node5" class="node">
<title>backend</title>
<path fill="#dcfce7" stroke="#475569" d="M845.25,-153.12C845.25,-153.12 662,-153.12 662,-153.12 656,-153.12 650,-147.12 650,-141.12 650,-141.12 650,-106.88 650,-106.88 650,-100.88 656,-94.88 662,-94.88 662,-94.88 845.25,-94.88 845.25,-94.88 851.25,-94.88 857.25,-100.88 857.25,-106.88 857.25,-106.88 857.25,-141.12 857.25,-141.12 857.25,-147.12 851.25,-153.12 845.25,-153.12"/>
<text xml:space="preserve" text-anchor="middle" x="753.62" y="-138.68" font-family="Sans" font-size="11.00">后端容器</text>
<text xml:space="preserve" text-anchor="middle" x="753.62" y="-121.42" font-family="Sans" font-size="11.00">Spring Boot 3 + MyBatis&#45;Plus</text>
<text xml:space="preserve" text-anchor="middle" x="753.62" y="-105.67" font-family="Sans" font-size="11.00">负责认证、主数据、收支、报表、备份</text>
</g>
<!-- spa&#45;&gt;backend -->
<g id="edge4" class="edge">
<title>spa&#45;&gt;backend</title>
<path fill="none" stroke="#475569" d="M525.08,-124C525.08,-124 638.23,-124 638.23,-124"/>
<polygon fill="#475569" stroke="#475569" points="638.23,-127.5 648.23,-124 638.23,-120.5 638.23,-127.5"/>
<text xml:space="preserve" text-anchor="middle" x="587.38" y="-128.75" font-family="Sans" font-size="10.00">REST / JSON</text>
</g>
<!-- db -->
<g id="node6" class="node">
<title>db</title>
<path fill="#f8fafc" stroke="#475569" d="M1102.75,-88.77C1102.75,-92.78 1074.96,-96.05 1040.75,-96.05 1006.54,-96.05 978.75,-92.78 978.75,-88.77 978.75,-88.77 978.75,-23.23 978.75,-23.23 978.75,-19.22 1006.54,-15.95 1040.75,-15.95 1074.96,-15.95 1102.75,-19.22 1102.75,-23.23 1102.75,-23.23 1102.75,-88.77 1102.75,-88.77"/>
<path fill="none" stroke="#475569" d="M1102.75,-88.77C1102.75,-84.75 1074.96,-81.48 1040.75,-81.48 1006.54,-81.48 978.75,-84.75 978.75,-88.77"/>
<text xml:space="preserve" text-anchor="middle" x="1040.75" y="-70.67" font-family="Sans" font-size="11.00">数据容器</text>
<text xml:space="preserve" text-anchor="middle" x="1040.75" y="-53.42" font-family="Sans" font-size="11.00">MySQL 8</text>
<text xml:space="preserve" text-anchor="middle" x="1040.75" y="-37.67" font-family="Sans" font-size="11.00">存储 10 张核心业务表</text>
</g>
<!-- backend&#45;&gt;db -->
<g id="edge5" class="edge">
<title>backend&#45;&gt;db</title>
<path fill="none" stroke="#475569" d="M857.46,-113.95C918.08,-113.95 982.75,-113.95 982.75,-113.95 982.75,-113.95 982.75,-105.19 982.75,-105.19"/>
<polygon fill="#475569" stroke="#475569" points="986.25,-105.19 982.75,-95.19 979.25,-105.19 986.25,-105.19"/>
<text xml:space="preserve" text-anchor="middle" x="918" y="-88.75" font-family="Sans" font-size="10.00">JDBC / SQL</text>
</g>
<!-- files -->
<g id="node7" class="node">
<title>files</title>
<polygon fill="#fef3c7" stroke="#475569" points="1095.25,-192.25 990.25,-192.25 986.25,-188.25 986.25,-149.75 1091.25,-149.75 1095.25,-153.75 1095.25,-192.25"/>
<polyline fill="none" stroke="#475569" points="1091.25,-188.25 986.25,-188.25"/>
<polyline fill="none" stroke="#475569" points="1091.25,-188.25 1091.25,-149.75"/>
<polyline fill="none" stroke="#475569" points="1091.25,-188.25 1095.25,-192.25"/>
<text xml:space="preserve" text-anchor="middle" x="1040.75" y="-177.8" font-family="Sans" font-size="11.00">文件容器</text>
<text xml:space="preserve" text-anchor="middle" x="1040.75" y="-160.55" font-family="Sans" font-size="11.00">备份 SQL 文件目录</text>
</g>
<!-- backend&#45;&gt;files -->
<g id="edge6" class="edge">
<title>backend&#45;&gt;files</title>
<path fill="none" stroke="#475569" d="M857.69,-131.85C939.86,-131.85 1040.75,-131.85 1040.75,-131.85 1040.75,-131.85 1040.75,-138.08 1040.75,-138.08"/>
<polygon fill="#475569" stroke="#475569" points="1037.25,-138.08 1040.75,-148.08 1044.25,-138.08 1037.25,-138.08"/>
<text xml:space="preserve" text-anchor="middle" x="918" y="-169.5" font-family="Sans" font-size="10.00">文件读写</text>
</g>
</g>
</svg>
